<?xml version="1.0" standalone="no"?>
<!DOCTYPE svg PUBLIC "-//W3C//DTD SVG 20010904//EN"
 "http://www.w3.org/TR/2001/REC-SVG-20010904/DTD/svg10.dtd">
<svg version="1.0" xmlns="http://www.w3.org/2000/svg"
 width="100.000000pt" height="100.000000pt" viewBox="0 0 100.000000 100.000000"
 preserveAspectRatio="xMidYMid meet">
<metadata>
Created by potrace 1.16, written by Peter Selinger 2001-2019
</metadata>
<g transform="translate(0.000000,100.000000) scale(0.100000,-0.100000)"
fill="#000000" stroke="none">
<path d="M0 500 l0 -500 500 0 500 0 0 500 0 500 -500 0 -500 0 0 -500z m590
320 c0 -21 5 -30 16 -30 36 0 59 -52 28 -64 -12 -4 -14 -14 -9 -36 6 -26 4
-29 -12 -23 -10 4 -29 17 -43 30 -14 13 -31 21 -38 18 -7 -2 -15 2 -18 10 -4
8 -11 12 -16 9 -6 -4 -14 0 -19 7 -5 9 6 28 39 61 55 55 72 60 72 18z m70
-575 c0 -35 0 -35 45 -35 45 0 45 0 45 -35 l0 -35 -247 2 -248 3 0 30 c0 27 3
30 38 33 28 2 37 8 37 22 0 49 2 50 171 50 l159 0 0 -35z"/>
</g>
</svg>
