<?xml version="1.0" encoding="UTF-8"?><svg xmlns="http://www.w3.org/2000/svg" xmlns:xlink="http://www.w3.org/1999/xlink" viewBox="0 0 1000 1000"><defs><style>.cls-1{fill:url(#New_Gradient_Swatch_1-41);}.cls-1,.cls-2,.cls-3,.cls-4,.cls-5,.cls-6,.cls-7,.cls-8,.cls-9,.cls-10,.cls-11,.cls-12,.cls-13,.cls-14,.cls-15,.cls-16,.cls-17,.cls-18,.cls-19,.cls-20,.cls-21,.cls-22,.cls-23,.cls-24,.cls-25,.cls-26,.cls-27,.cls-28,.cls-29,.cls-30,.cls-31,.cls-32,.cls-33,.cls-34,.cls-35,.cls-36,.cls-37,.cls-38,.cls-39,.cls-40,.cls-41,.cls-42,.cls-43,.cls-44,.cls-45,.cls-46,.cls-47,.cls-48,.cls-49,.cls-50,.cls-51,.cls-52,.cls-53,.cls-54,.cls-55,.cls-56,.cls-57,.cls-58,.cls-59,.cls-60,.cls-61{stroke-width:0px;}.cls-1,.cls-3,.cls-4,.cls-5,.cls-9,.cls-10,.cls-16,.cls-19,.cls-21,.cls-23,.cls-24,.cls-62,.cls-33,.cls-36,.cls-45,.cls-46,.cls-47,.cls-48,.cls-49,.cls-52,.cls-53,.cls-54,.cls-63,.cls-59{mix-blend-mode:screen;}.cls-2{fill:url(#New_Gradient_Swatch_1-12);}.cls-2,.cls-4,.cls-10,.cls-13,.cls-16,.cls-17,.cls-21,.cls-24,.cls-35,.cls-38,.cls-44,.cls-46,.cls-47,.cls-52,.cls-53,.cls-54,.cls-55,.cls-63{opacity:.5;}.cls-2,.cls-12,.cls-13,.cls-17,.cls-20,.cls-38,.cls-44,.cls-51,.cls-55,.cls-64{mix-blend-mode:multiply;}.cls-3{fill:url(#New_Gradient_Swatch_1-49);}.cls-4{fill:url(#New_Gradient_Swatch_1-19);}.cls-5{fill:url(#New_Gradient_Swatch_1-51);opacity:.3;}.cls-6{fill:url(#New_Gradient_Swatch_1-33);}.cls-7{fill:url(#New_Gradient_Swatch_1-38);}.cls-8{fill:url(#New_Gradient_Swatch_1-50);}.cls-9{fill:url(#New_Gradient_Swatch_1-48);}.cls-10{fill:url(#New_Gradient_Swatch_1-27);}.cls-65{isolation:isolate;}.cls-11{fill:url(#New_Gradient_Swatch_1-43);}.cls-12{fill:url(#New_Gradient_Swatch_1-45);}.cls-13{fill:url(#New_Gradient_Swatch_1-59);}.cls-14{fill:url(#New_Gradient_Swatch_1-14);}.cls-15{fill:url(#New_Gradient_Swatch_1-10);}.cls-16{fill:url(#New_Gradient_Swatch_1-26);}.cls-17{fill:url(#New_Gradient_Swatch_1-39);}.cls-18{fill:url(#New_Gradient_Swatch_1-54);}.cls-19{fill:url(#New_Gradient_Swatch_1-44);}.cls-20{fill:url(#New_Gradient_Swatch_1-18);}.cls-20,.cls-23,.cls-33,.cls-36,.cls-51,.cls-59{opacity:.7;}.cls-21{fill:url(#New_Gradient_Swatch_1-29);}.cls-22{fill:url(#New_Gradient_Swatch_1-53);}.cls-23{fill:url(#New_Gradient_Swatch_1-17);}.cls-24{fill:url(#New_Gradient_Swatch_1-30);}.cls-25{fill:url(#New_Gradient_Swatch_1-3);}.cls-26{fill:#fff;}.cls-27{fill:url(#New_Gradient_Swatch_1-32);}.cls-28{fill:url(#New_Gradient_Swatch_1-8);}.cls-29{fill:url(#New_Gradient_Swatch_1-6);}.cls-30{fill:#40ddf2;}.cls-31{fill:url(#New_Gradient_Swatch_1);}.cls-32{fill:url(#New_Gradient_Swatch_1-9);}.cls-33{fill:url(#New_Gradient_Swatch_1-16);}.cls-34{fill:url(#New_Gradient_Swatch_1-2);}.cls-35{fill:url(#New_Gradient_Swatch_1-25);}.cls-36{fill:url(#New_Gradient_Swatch_1-22);}.cls-37{fill:url(#New_Gradient_Swatch_1-24);}.cls-38{fill:url(#New_Gradient_Swatch_1-11);}.cls-39{fill:url(#New_Gradient_Swatch_1-40);}.cls-40{fill:url(#New_Gradient_Swatch_1-58);}.cls-41{fill:url(#New_Gradient_Swatch_1-20);}.cls-42{fill:url(#New_Gradient_Swatch_1-52);}.cls-43{fill:url(#New_Gradient_Swatch_1-4);}.cls-44{fill:url(#New_Gradient_Swatch_1-34);}.cls-45{fill:url(#New_Gradient_Swatch_1-47);}.cls-46{fill:url(#New_Gradient_Swatch_1-37);}.cls-47{fill:url(#New_Gradient_Swatch_1-23);}.cls-48{fill:url(#New_Gradient_Swatch_1-31);}.cls-49{fill:url(#New_Gradient_Swatch_1-42);}.cls-50{fill:url(#New_Gradient_Swatch_1-35);}.cls-51{fill:url(#New_Gradient_Swatch_1-21);}.cls-52{fill:url(#New_Gradient_Swatch_1-13);}.cls-53{fill:url(#New_Gradient_Swatch_1-36);}.cls-54{fill:url(#New_Gradient_Swatch_1-28);}.cls-55{fill:url(#New_Gradient_Swatch_1-57);}.cls-56{fill:url(#New_Gradient_Swatch_1-5);}.cls-57{fill:url(#New_Gradient_Swatch_1-46);}.cls-58{fill:url(#New_Gradient_Swatch_1-7);}.cls-59{fill:url(#New_Gradient_Swatch_1-15);}.cls-60{fill:url(#New_Gradient_Swatch_1-56);}.cls-61{fill:url(#New_Gradient_Swatch_1-55);}</style><radialGradient id="New_Gradient_Swatch_1" cx="304.06" cy="491.72" fx="304.06" fy="491.72" r="18.79" gradientUnits="userSpaceOnUse"><stop offset="0" stop-color="#00d3ff"/><stop offset=".1" stop-color="#00cef9"/><stop offset=".23" stop-color="#00c2eb"/><stop offset=".36" stop-color="#00aed2"/><stop offset=".5" stop-color="#0092b0"/><stop offset=".65" stop-color="#006d84"/><stop offset=".81" stop-color="#00414f"/><stop offset=".96" stop-color="#000e10"/><stop offset="1" stop-color="#000"/></radialGradient><radialGradient id="New_Gradient_Swatch_1-2" cx="597.34" cy="656.02" fx="597.34" fy="656.02" r="12.18" xlink:href="#New_Gradient_Swatch_1"/><radialGradient id="New_Gradient_Swatch_1-3" cx="519.97" cy="601.58" fx="519.97" fy="601.58" r="6.35" xlink:href="#New_Gradient_Swatch_1"/><radialGradient id="New_Gradient_Swatch_1-4" cx="685.12" cy="264.74" fx="685.12" fy="264.74" r="8.81" xlink:href="#New_Gradient_Swatch_1"/><radialGradient id="New_Gradient_Swatch_1-5" cx="454.15" cy="134.83" fx="454.15" fy="134.83" r="12.63" xlink:href="#New_Gradient_Swatch_1"/><radialGradient id="New_Gradient_Swatch_1-6" cx="528.02" cy="356.72" fx="528.02" fy="356.72" r="146.92" xlink:href="#New_Gradient_Swatch_1"/><radialGradient id="New_Gradient_Swatch_1-7" cx="649.44" cy="315.58" fx="649.44" fy="315.58" r="38.52" xlink:href="#New_Gradient_Swatch_1"/><radialGradient id="New_Gradient_Swatch_1-8" cx="527.03" cy="388.87" fx="527.03" fy="388.87" r="139.25" xlink:href="#New_Gradient_Swatch_1"/><radialGradient id="New_Gradient_Swatch_1-9" cx="420.9" cy="304.2" fx="420.9" fy="304.2" r="42.84" xlink:href="#New_Gradient_Swatch_1"/><radialGradient id="New_Gradient_Swatch_1-10" cx="528.75" cy="339.02" fx="528.75" fy="339.02" r="126.69" xlink:href="#New_Gradient_Swatch_1"/><radialGradient id="New_Gradient_Swatch_1-11" cx="631.7" cy="358.55" fx="631.7" fy="358.55" r="82.74" xlink:href="#New_Gradient_Swatch_1"/><radialGradient id="New_Gradient_Swatch_1-12" cx="648.88" cy="341.42" fx="648.88" fy="341.42" r="54.17" xlink:href="#New_Gradient_Swatch_1"/><radialGradient id="New_Gradient_Swatch_1-13" cx="405.64" cy="339.6" fx="405.64" fy="339.6" r="65.8" xlink:href="#New_Gradient_Swatch_1"/><radialGradient id="New_Gradient_Swatch_1-14" cx="65.53" cy="640.66" fx="65.53" fy="640.66" r="81.26" gradientTransform="translate(564.66 -38.22) rotate(15.24)" xlink:href="#New_Gradient_Swatch_1"/><radialGradient id="New_Gradient_Swatch_1-15" cx="530.95" cy="588.27" fx="530.95" fy="588.27" r="19.22" xlink:href="#New_Gradient_Swatch_1"/><radialGradient id="New_Gradient_Swatch_1-16" cx="459.74" cy="609.87" fx="459.74" fy="609.87" r="77.71" xlink:href="#New_Gradient_Swatch_1"/><radialGradient id="New_Gradient_Swatch_1-17" cx="408.4" cy="556.55" fx="408.4" fy="556.55" r="25.71" xlink:href="#New_Gradient_Swatch_1"/><radialGradient id="New_Gradient_Swatch_1-18" cx="122.88" cy="641.68" fx="122.88" fy="641.68" r="45.76" gradientTransform="translate(564.66 -38.22) rotate(15.24)" xlink:href="#New_Gradient_Swatch_1"/><radialGradient id="New_Gradient_Swatch_1-19" cx="-2.15" cy="631.19" fx="-2.15" fy="631.19" r="36.39" gradientTransform="translate(564.66 -38.22) rotate(15.24)" xlink:href="#New_Gradient_Swatch_1"/><radialGradient id="New_Gradient_Swatch_1-20" cx="854.46" cy="695.14" fx="854.46" fy="695.14" r="34.29" gradientTransform="translate(-493.45 203.44) rotate(-13.89)" xlink:href="#New_Gradient_Swatch_1"/><radialGradient id="New_Gradient_Swatch_1-21" cx="878.66" cy="695.57" fx="878.66" fy="695.57" r="19.31" gradientTransform="translate(-493.45 203.44) rotate(-13.89)" xlink:href="#New_Gradient_Swatch_1"/><radialGradient id="New_Gradient_Swatch_1-22" cx="825.9" cy="691.15" fx="825.9" fy="691.15" r="15.36" gradientTransform="translate(-493.45 203.44) rotate(-13.89)" xlink:href="#New_Gradient_Swatch_1"/><radialGradient id="New_Gradient_Swatch_1-23" cx="418.19" cy="326.07" fx="418.19" fy="326.07" r="52.84" xlink:href="#New_Gradient_Swatch_1"/><radialGradient id="New_Gradient_Swatch_1-24" cx="568.59" cy="242.76" fx="568.59" fy="242.76" r="146.19" xlink:href="#New_Gradient_Swatch_1"/><radialGradient id="New_Gradient_Swatch_1-25" cx="488.7" cy="366.64" fx="488.7" fy="366.64" r="21.14" xlink:href="#New_Gradient_Swatch_1"/><radialGradient id="New_Gradient_Swatch_1-26" cx="1737.91" cy="628.86" fx="1737.91" fy="628.86" r="32.89" gradientTransform="translate(-1271.41 545.41) rotate(-29.85)" xlink:href="#New_Gradient_Swatch_1"/><radialGradient id="New_Gradient_Swatch_1-27" cx="1680.74" cy="639.14" fx="1680.74" fy="639.14" r="19.81" gradientTransform="translate(-1271.41 545.41) rotate(-29.85)" xlink:href="#New_Gradient_Swatch_1"/><radialGradient id="New_Gradient_Swatch_1-28" cx="1883.16" cy="602.61" fx="1883.16" fy="602.61" r="44.04" gradientTransform="translate(-1271.41 545.41) rotate(-29.85)" xlink:href="#New_Gradient_Swatch_1"/><radialGradient id="New_Gradient_Swatch_1-29" cx="1800.18" cy="609.98" fx="1800.18" fy="609.98" r="20.58" gradientTransform="translate(-1271.41 545.41) rotate(-29.85)" xlink:href="#New_Gradient_Swatch_1"/><radialGradient id="New_Gradient_Swatch_1-30" cx="1628.87" cy="677.12" fx="1628.87" fy="677.12" r="36.05" gradientTransform="translate(-1271.41 545.41) rotate(-29.85)" xlink:href="#New_Gradient_Swatch_1"/><radialGradient id="New_Gradient_Swatch_1-31" cx="440.63" cy="357.99" fx="440.63" fy="357.99" r="21.37" xlink:href="#New_Gradient_Swatch_1"/><radialGradient id="New_Gradient_Swatch_1-32" cx="492.74" cy="366.7" fx="492.74" fy="366.7" r="20.01" xlink:href="#New_Gradient_Swatch_1"/><radialGradient id="New_Gradient_Swatch_1-33" cx="436.45" cy="485.26" fx="436.45" fy="485.26" r="51.85" xlink:href="#New_Gradient_Swatch_1"/><radialGradient id="New_Gradient_Swatch_1-34" cx="463.9" cy="491.72" fx="463.9" fy="491.72" r="40.71" xlink:href="#New_Gradient_Swatch_1"/><radialGradient id="New_Gradient_Swatch_1-35" cx="467.61" cy="492.2" fx="467.61" fy="492.2" r="40.01" xlink:href="#New_Gradient_Swatch_1"/><radialGradient id="New_Gradient_Swatch_1-36" cx="408.17" cy="443.76" fx="408.17" fy="443.76" r="16.4" xlink:href="#New_Gradient_Swatch_1"/><radialGradient id="New_Gradient_Swatch_1-37" cx="1492.43" cy="785.39" fx="1492.43" fy="785.39" r="15.33" gradientTransform="translate(-1271.41 545.41) rotate(-29.85)" xlink:href="#New_Gradient_Swatch_1"/><radialGradient id="New_Gradient_Swatch_1-38" cx="520.45" cy="492.37" fx="520.45" fy="492.37" r="52.32" xlink:href="#New_Gradient_Swatch_1"/><radialGradient id="New_Gradient_Swatch_1-39" cx="511.78" cy="495.92" fx="511.78" fy="495.92" r="40.06" gradientTransform="translate(-34.71 2.45) rotate(-.62)" xlink:href="#New_Gradient_Swatch_1"/><radialGradient id="New_Gradient_Swatch_1-40" cx="479.98" cy="492.78" fx="479.98" fy="492.78" r="39.76" xlink:href="#New_Gradient_Swatch_1"/><radialGradient id="New_Gradient_Swatch_1-41" cx="562.03" cy="482.43" fx="562.03" fy="482.43" r="39.41" gradientTransform="translate(-34.71 2.45) rotate(-.62)" xlink:href="#New_Gradient_Swatch_1"/><radialGradient id="New_Gradient_Swatch_1-42" cx="1442.08" cy="740.44" fx="1442.08" fy="740.44" r="23.21" gradientTransform="translate(-1098.45 407.12) rotate(-23.2)" xlink:href="#New_Gradient_Swatch_1"/><radialGradient id="New_Gradient_Swatch_1-43" cx="595.94" cy="258.52" fx="595.94" fy="258.52" r="119.5" xlink:href="#New_Gradient_Swatch_1"/><radialGradient id="New_Gradient_Swatch_1-44" cx="572.31" cy="365.88" fx="572.31" fy="365.88" r="28.95" xlink:href="#New_Gradient_Swatch_1"/><radialGradient id="New_Gradient_Swatch_1-45" cx="591.59" cy="262.37" fx="591.59" fy="262.37" r="115.08" xlink:href="#New_Gradient_Swatch_1"/><radialGradient id="New_Gradient_Swatch_1-46" cx="591.59" cy="262.27" fx="591.59" fy="262.27" r="115.02" xlink:href="#New_Gradient_Swatch_1"/><radialGradient id="New_Gradient_Swatch_1-47" cx="1671.5" cy="463.54" fx="1671.5" fy="463.54" r="50" gradientTransform="translate(-1068.42 392.25) rotate(-22.58)" xlink:href="#New_Gradient_Swatch_1"/><radialGradient id="New_Gradient_Swatch_1-48" cx="1593.01" cy="524.85" fx="1593.01" fy="524.85" r="37.9" gradientTransform="translate(-1068.42 392.25) rotate(-22.58)" xlink:href="#New_Gradient_Swatch_1"/><radialGradient id="New_Gradient_Swatch_1-49" cx="1561.58" cy="568.15" fx="1561.58" fy="568.15" r="27.58" gradientTransform="translate(-1068.42 392.25) rotate(-22.58)" xlink:href="#New_Gradient_Swatch_1"/><radialGradient id="New_Gradient_Swatch_1-50" cx="1281.37" cy="318.15" fx="1281.37" fy="318.15" r="28.86" gradientTransform="translate(-635.08 182.44) rotate(-13.63)" xlink:href="#New_Gradient_Swatch_1"/><radialGradient id="New_Gradient_Swatch_1-51" cx="2232.55" cy="919.33" fx="2232.55" fy="919.33" r="29.43" gradientTransform="translate(-1641.94 835.31) rotate(-37.9)" xlink:href="#New_Gradient_Swatch_1"/><radialGradient id="New_Gradient_Swatch_1-52" cx="601.71" cy="610.19" fx="601.71" fy="610.19" r="18.55" gradientTransform="translate(-160.05 11.11) rotate(-2.81)" xlink:href="#New_Gradient_Swatch_1"/><radialGradient id="New_Gradient_Swatch_1-53" cx="415.92" cy="560.44" fx="415.92" fy="560.44" r="5.07" gradientTransform="translate(844.99 1154.25) rotate(-175.96)" xlink:href="#New_Gradient_Swatch_1"/><radialGradient id="New_Gradient_Swatch_1-54" cx="601.71" cy="576.58" fx="601.71" fy="576.58" r="6.1" gradientTransform="translate(-160.05 11.11) rotate(-2.81)" xlink:href="#New_Gradient_Swatch_1"/><radialGradient id="New_Gradient_Swatch_1-55" cx="410.73" cy="585.6" fx="410.73" fy="585.6" r="16.46" gradientTransform="translate(64.88 -2.69) rotate(1.13)" xlink:href="#New_Gradient_Swatch_1"/><radialGradient id="New_Gradient_Swatch_1-56" cx="412.62" cy="560.63" fx="412.62" fy="560.63" r="2.96" gradientTransform="translate(64.88 -2.69) rotate(1.13)" xlink:href="#New_Gradient_Swatch_1"/><radialGradient id="New_Gradient_Swatch_1-57" cx="416.03" cy="562.31" fx="416.03" fy="562.31" r="4.6" gradientTransform="translate(64.88 -2.69) rotate(1.13)" xlink:href="#New_Gradient_Swatch_1"/><radialGradient id="New_Gradient_Swatch_1-58" cx="411.49" cy="552.4" fx="411.49" fy="552.4" r="3.99" gradientTransform="translate(64.88 -2.69) rotate(1.13)" xlink:href="#New_Gradient_Swatch_1"/><radialGradient id="New_Gradient_Swatch_1-59" cx="415.62" cy="555.45" fx="415.62" fy="555.45" r="5.35" gradientTransform="translate(64.88 -2.69) rotate(1.13)" xlink:href="#New_Gradient_Swatch_1"/></defs><g class="cls-65"><g id="Texts"><path class="cls-31" d="M304.06,510.51c-.32-1.94-1.52-7.65-6.52-12.56-4.82-4.73-10.3-5.91-12.27-6.23,1.83-.21,7.4-1.07,12.27-5.68,5.41-5.11,6.32-11.4,6.52-13.11.21,1.75,1.19,8.02,6.61,13.11,4.83,4.54,10.3,5.45,12.18,5.68-2.01.35-7.4,1.57-12.18,6.23-5.01,4.89-6.27,10.58-6.61,12.56Z"/><path class="cls-34" d="M597.34,668.2c-.21-1.26-.99-4.96-4.23-8.14-3.12-3.07-6.68-3.83-7.96-4.04,1.19-.13,4.8-.69,7.96-3.68,3.51-3.31,4.1-7.39,4.23-8.5.14,1.14.77,5.2,4.29,8.5,3.13,2.94,6.68,3.53,7.89,3.68-1.3.23-4.8,1.02-7.89,4.04-3.25,3.17-4.06,6.86-4.29,8.14Z"/><path class="cls-25" d="M519.97,607.93c-.11-.66-.51-2.59-2.2-4.25-1.63-1.6-3.48-2-4.15-2.11.62-.07,2.5-.36,4.15-1.92,1.83-1.73,2.14-3.85,2.2-4.43.07.59.4,2.71,2.24,4.43,1.63,1.54,3.48,1.84,4.12,1.92-.68.12-2.5.53-4.12,2.11-1.69,1.65-2.12,3.58-2.24,4.25Z"/><path class="cls-43" d="M685.12,273.54c-.15-.91-.71-3.59-3.05-5.89-2.26-2.22-4.83-2.77-5.75-2.92.86-.1,3.47-.5,5.75-2.66,2.53-2.4,2.96-5.34,3.05-6.15.1.82.56,3.76,3.1,6.15,2.26,2.13,4.83,2.55,5.71,2.66-.94.16-3.47.73-5.71,2.92-2.35,2.29-2.94,4.96-3.1,5.89Z"/><path class="cls-56" d="M454.15,147.46c-.22-1.3-1.02-5.14-4.38-8.44-3.24-3.18-6.93-3.97-8.25-4.19,1.23-.14,4.97-.72,8.25-3.82,3.64-3.44,4.25-7.66,4.38-8.82.14,1.18.8,5.39,4.45,8.82,3.25,3.05,6.93,3.66,8.19,3.82-1.35.24-4.98,1.05-8.19,4.19-3.37,3.29-4.21,7.11-4.45,8.44Z"/><path class="cls-29" d="M606.48,282.28c-.03.32-.08.65-.17.97,51.11,11.07,85.8,32.64,85.8,57.44,0,36.09-73.47,57.59-164.09,57.59s-164.09-21.5-164.09-57.59c0-28.79,46.74-53.22,111.63-61.93.04-.14.09-.27.13-.41-80.84,9.46-140.1,40.28-140.1,76.86,0,44.11,86.15,79.87,192.43,79.87s192.42-35.76,192.42-79.87c0-32.51-46.8-60.47-113.96-72.93Z"/><path class="cls-58" d="M692.12,340.7c0,2.82-.45,5.54-1.32,8.18,1.15-3.01,1.76-6.14,1.76-9.39,0-23.34-30.72-43.81-76.93-55.37-3.01-.64-6.05-1.26-9.14-1.83-.03.32-.08.65-.17.97,51.11,11.07,85.8,32.64,85.8,57.44Z"/><path class="cls-28" d="M528.46,433.87c-106.28,0-192.43-35.76-192.43-79.87,0-3.85.67-7.64,1.94-11.35-1.56,4.09-2.38,8.29-2.38,12.56,0,44.11,86.15,79.87,192.43,79.87,96.89,0,177.04-29.72,190.44-68.4-14.64,38.08-94.13,67.19-190,67.19Z"/><path class="cls-32" d="M366.1,330.05c9.9-24.04,52.74-43.67,109.46-51.29.04-.14.09-.27.13-.41-10.07,1.18-19.81,2.69-29.14,4.5-42.61,9.8-73.11,27-80.45,47.19Z"/><path class="cls-15" d="M475.56,278.76c.04-.14.09-.27.13-.41-.24.03-.49.06-.73.09-.04.11-.07.22-.11.32-66.67,8.82-114.69,33.54-114.69,62.66,0,36.51,75.48,58.26,168.59,58.26s168.59-21.75,168.59-58.26c0-25.09-35.64-46.91-88.15-58.11.04-.16.08-.33.11-.5-.94-.18-1.87-.36-2.82-.54-.03.32-.08.65-.17.97,51.11,11.07,85.8,32.64,85.8,57.44,0,36.09-73.47,57.59-164.09,57.59s-164.09-21.5-164.09-57.59c0-28.79,46.74-53.22,111.63-61.93Z"/><path class="cls-38" d="M606.48,282.28c-.03.32-.08.65-.17.97,51.1,11.07,85.79,32.64,85.79,57.44s-33.41,42.02-82.94,50.97c-19.6,19.25-41.68,34.36-66.22,43.16,99.29-3.17,177.49-37.58,177.49-79.61,0-32.51-46.8-60.47-113.96-72.93Z"/><path class="cls-2" d="M609.17,391.66c-3.04,2.98-6.14,5.85-9.3,8.63,2.47-2.12,4.92-4.28,7.32-6.51,54.16-9.23,90.69-27.45,90.69-52.53s-36.86-47.16-91.44-58.71c-.03.24-.07.48-.13.71,51.1,11.07,85.79,32.64,85.79,57.44s-33.41,42.02-82.94,50.97Z"/><path class="cls-52" d="M335.59,355.22c0,16.97,12.76,32.7,34.51,45.64,3.32-11.22,8.53-21.6,16.24-29.19-14.24-8.53-22.41-18.94-22.41-30.97,0-28.79,46.74-53.22,111.63-61.93.04-.14.09-.27.13-.41-80.84,9.46-140.1,40.28-140.1,76.86Z"/><path class="cls-14" d="M512.21,568.8c-.06.17-.14.34-.23.5,25.66,13.34,41.04,29.89,37.43,43.12-5.25,19.26-47.57,20.05-95.93,6.88-48.36-13.17-84.44-35.32-79.19-54.58,4.18-15.36,32.67-21.6,68.57-16.82.04-.07.09-.13.13-.2-44.51-6.7-80.61,1.13-85.93,20.65-6.41,23.54,34.36,55.14,91.07,70.59,56.71,15.45,107.88,8.89,114.29-14.65,4.73-17.35-16.18-39.07-50.21-55.48Z"/><path class="cls-59" d="M549.9,607.73c.44-9.86-8.56-21.17-23.77-31.49-4.34-2.57-8.99-5.07-13.92-7.45-.06.17-.14.34-.23.5,22.71,11.8,37.36,26.13,37.93,38.44Z"/><path class="cls-33" d="M562.42,622.85c-6.41,23.54-57.58,30.1-114.29,14.65-52.36-14.26-91.1-42.3-91.69-65.04-1.05,22.99,38.23,51.91,91.69,66.47,56.71,15.45,107.88,8.89,114.29-14.65.51-1.87.7-3.78.63-5.74-.05,1.46-.25,2.9-.63,4.3Z"/><path class="cls-23" d="M374.29,563.28c-.4,1.48-.53,2.97-.46,4.48.05-1.02.19-2.04.46-3.05,4.18-15.36,32.67-21.6,68.57-16.82.04-.07.09-.13.13-.2-12.23-1.84-23.83-2.58-34.32-2.29-18.64,1.75-31.65,7.88-34.38,17.87Z"/><path class="cls-20" d="M512.21,568.8c-.06.17-.14.34-.23.5,25.66,13.34,41.04,29.89,37.43,43.12-3.54,12.98-23.93,17.56-51.66,15.14-13.26,7.43-27.23,12.28-41.61,13.4,53.44,12.74,100.17,5.75,106.28-16.68,4.73-17.35-16.18-39.07-50.21-55.48Z"/><path class="cls-4" d="M357.06,568.34c-2.47,9.06,2.06,19.3,11.78,29.37,3.4-5.51,7.69-10.29,12.91-13.21-6.36-6.62-9.21-13.36-7.46-19.78,4.18-15.36,32.67-21.6,68.57-16.82.04-.07.09-.13.13-.2-44.51-6.7-80.61,1.13-85.93,20.65Z"/><path class="cls-41" d="M516.49,651.8c.01.08.02.15.02.23,12.2-.36,21.27,2.59,22.66,8.2,2.02,8.18-13.42,17.16-33.95,22.24-20.53,5.08-38.38,4.32-40.4-3.85-1.61-6.52,7.61-14.67,21.82-20.29,0-.03,0-.07,0-.1-17.78,6.67-29.48,16.98-27.43,25.26,2.47,9.99,23.99,13.27,48.07,7.31,24.07-5.95,41.59-18.88,39.12-28.87-1.82-7.36-13.99-11.08-29.9-10.14Z"/><path class="cls-51" d="M516.49,651.8c.01.08.02.15.02.23,12.2-.36,21.26,2.59,22.65,8.2,1.36,5.51-5.21,11.39-15.93,16.19-3.36,5.46-7.52,10.12-12.58,13.49,22.31-6.28,38.1-18.46,35.75-27.98-1.82-7.36-13.99-11.08-29.9-10.14Z"/><path class="cls-36" d="M459.21,683.5c.95,3.84,4.72,6.69,10.37,8.41.12-2.73.72-5.37,2.04-7.52-3.7-1.13-6.14-3.03-6.81-5.76-1.61-6.52,7.61-14.67,21.82-20.29,0-.03,0-.07,0-.1-17.78,6.67-29.48,16.98-27.43,25.26Z"/><g class="cls-62"><path class="cls-47" d="M360.68,341.24c0,12.56,8.59,23.49,23.64,32.55.65-.73,1.32-1.44,2.02-2.12-14.24-8.53-22.41-18.94-22.41-30.97,0-28.79,46.74-53.22,111.63-61.93.04-.14.09-.27.13-.41-18.83,2.2-36.48,5.57-52.49,9.89-38.36,13-62.52,31.93-62.52,53Z"/></g><path class="cls-37" d="M512.08,317.02c43.01-98.16,94.76-138.31,118.72-154.89,21.55-14.92,41.8-25.43,56.19-32.21,9.91-8.98,23.97-24.13,23.48-37.51,0,0-85.77,35.81-99.43,73.49,0,0-5.06-4.35-.79-11.34,0,0-34.65,16.91-36.72,42.36,0,0-5.31-4.42-2.62-12.19,0,0-51.89,34.82-47.04,76.53,0,0-10.35-10.93-8.94-24.16,0,0-30.92,23.17-23.19,46.06,0,0-7.2-3.57-5.59-11.71,0,0-32.11,42.04-25.53,68.8l6.58,26.75s-11.67-15.28-14.11-35.81c0,0-23.31,30.1-26.41,52.54,17.15,4.32,37.03,7.49,58.71,9.41,8.03-30.19,17.79-55.8,26.69-76.1Z"/><g class="cls-64"><path class="cls-35" d="M502.58,340.16c-10.37,17.06-19.66,34.39-27.76,51.91,3.48.38,7.01.74,10.59,1.05,5.23-19.66,11.19-37.38,17.17-52.96Z"/></g><path class="cls-16" d="M523.72,261.08c2.03,3.25,3.88,5.22,3.88,5.22-4.03-34.72,31.23-64.65,43.16-73.71-.69-1.99-.96-4.64.16-7.86,0,0-51.89,34.82-47.04,76.53,0,0-.06-.07-.16-.17Z"/><path class="cls-10" d="M490.22,282.14c1.46,4.15,5.25,6.05,5.25,6.05-6.15-18.22,12.17-36.61,19.91-43.36-.51-2.44-.73-5.04-.44-7.75,0,0-30.92,23.17-23.19,46.06,0,0-.66-.33-1.53-1.01Z"/><path class="cls-54" d="M614.76,170.94c11.74-32.38,76.65-63.34,94.72-71.43.7-2.39,1.07-4.77.99-7.1,0,0-78.83,32.93-97.35,68.86-2.59,6,1.64,9.67,1.64,9.67Z"/><path class="cls-21" d="M577.26,201.95c1.57-19.34,21.95-33.74,31.65-39.54-.6-1.94-.64-4.61,1.35-7.86,0,0-32.2,15.72-36.36,39.66.07,4.98,3.36,7.74,3.36,7.74Z"/><path class="cls-24" d="M470.93,372.03l-6.58-26.75c-5.53-22.48,16.25-55.73,23.35-65.8-1.29-1.89-2.23-4.54-1.54-8.04,0,0-32.11,42.04-25.53,68.8,4.22,17.17,5.73,23.32,6.28,25.52,2.28,3.98,4.02,6.28,4.02,6.28Z"/><g class="cls-63"><path class="cls-48" d="M454.57,339.25c-.62-2.58-1.14-5.27-1.47-8.08,0,0-23.31,30.1-26.41,52.53,1.47.37,2.96.73,4.47,1.09,3.96-17.43,17.92-37.96,23.41-45.55Z"/></g><path class="cls-27" d="M501.87,341.37c-6.8,15.69-13.32,32.89-18.95,51.43.82.26,1.65.39,2.47.44,5.24-19.7,11.21-37.47,17.2-53.08-.24.4-.47.8-.71,1.2Z"/><path class="cls-6" d="M404.73,461.81c11.5,16.27,18.29,23.78,18.29,23.78,0,0-14.97-6.77-23.76-16.97,3.36,9.35,8.26,19.89,15.55,30.86,15.42,23.2,35.31,38.96,50.86,48.99-1.52-41.27,1.96-78.98,7.99-112.4-23.64-2.96-45.36-7.76-64.2-13.99-5.84,12.93-11.39,30.31-4.72,39.74Z"/><path class="cls-44" d="M465.69,434.98c-7.48,35.23-11.51,70.58-11.54,105.47,4,3,7.88,5.66,11.52,8.01-1.52-41.27,1.96-78.98,7.99-112.4-2.68-.34-5.33-.7-7.96-1.08Z"/><path class="cls-50" d="M470.21,435.94c-3.41,16.8-5.99,34.44-7.4,52.84-1.58,20.59-1.52,39.82-.39,57.55,1.1.74,2.18,1.45,3.24,2.14-1.52-41.21,1.95-78.85,7.97-112.22-1.18-.17-2.34-.28-3.42-.31Z"/><path class="cls-53" d="M404.73,461.81c1.05,1.49,2.05,2.88,3.03,4.23-6.42-10.54.73-29.75,6.9-42.53-1.65-.79-3.3-1.5-4.94-2.02-5.93,12.99-11.75,30.74-4.99,40.32Z"/><path class="cls-46" d="M418.32,504.51c-7.29-10.96-12.2-21.5-15.55-30.86,8.79,10.2,23.76,16.97,23.76,16.97,0,0-1.65-1.82-4.67-5.59-3.64-1.79-15.27-7.9-22.61-16.42,3.36,9.35,8.26,19.89,15.55,30.86,1.16,1.75,2.36,3.44,3.57,5.11-.02-.02-.03-.05-.05-.07Z"/><path class="cls-7" d="M545.6,443.03c-13.13,7.49-25.51,11.55-33.98,13.77,7.13-3.49,18.26-9.52,29.86-18.62-4.64.19-9.32.31-14.05.36-14.51.16-28.65-.35-42.27-1.45-8.11,42.97-11.55,81.23-12.97,111.37,5.71-2.42,11.64-5.19,17.69-8.34,24.76-12.9,42.7-27.7,55.19-40.13-4.76,4.19-13.81,11.14-27.46,16.15-8.19,3.01-15.53,4.4-20.96,5.09,8.72-3.05,34.79-13.12,53.61-35.62,16.26-19.44,18.73-38.17,18.41-49.34-4.67.47-9.4.87-14.19,1.2-2.69,1.84-5.64,3.71-8.88,5.56Z"/><path class="cls-17" d="M472.2,548.46c3.35-1.4,6.88-2.97,10.54-4.74,3.38-1.63,6.53-3.26,9.45-4.86-3.86-37.28-2.87-71.37.47-101.23-2.52-.16-5.01-.35-7.49-.55-8.11,42.97-11.55,81.22-12.97,111.37Z"/><path class="cls-39" d="M472.2,548.46c3.51-1.58,7.03-3.16,10.54-4.74-1.51-26.6-.72-49.2.48-66.01.58-8.18,1.76-22.13,4.54-40.41-.87-.06-1.73-.14-2.59-.21-8.11,42.97-11.55,81.23-12.97,111.37Z"/><path class="cls-1" d="M563.25,436.78c-2.1,26.94-13.02,42.16-18.26,48.4-8.85,10.53-21.07,18.73-30.59,25.1-7.08,4.74-13.4,8.35-18.02,10.84,10.36-3.48,35.84-13.34,53.88-35.51,4.43-5.45,11.74-14.61,15.72-28.79,2.34-8.32,2.74-15.57,2.68-20.55-.92.09-1.85.18-2.79.27-.88.08-1.76.16-2.64.24Z"/><path class="cls-49" d="M492.25,538.92c.09.09,16.05-7.45,33.27-21.58,8.13-6.67,19.6-17.31,19.61-17.3,0,0,0,0,0,0-3.74,3.29-10.15,8.29-19.34,12.71-1.29,1.37-2.99,3.13-5.09,5.13-14.28,13.6-28.53,20.95-28.45,21.03Z"/><path class="cls-11" d="M547.82,395.1c8.72-4.21,18.57-10.08,27.66-18.13,19.17-16.99,23.92-33.86,25.3-40.5-1.48,1.14-7.22,5.29-16.21,6.48-8.09,1.07-13.88-.9-15.71-1.6,6.59-2.33,15.09-6.06,23.25-11.97,22.49-16.27,24.75-36.32,25.11-41.56-5.94,3.48-15.11,8.11-27.29,11.65-8.73,2.53-16.51,3.78-22.51,4.41,4.46-1.46,9.09-3.1,13.85-4.93,12.49-4.81,23.29-9.98,32.41-14.93,1.93-6.65,4.33-13.72,7.34-21.14,5.64-13.92,12.33-26.4,19.1-37.28-1.39,1.37-4.23,3.8-8.85,5.62-7.55,2.98-14.47,2.21-16.4,1.95,4.48-1.83,9.51-4.12,14.81-6.99,4.96-2.68,9.21-5.34,12.77-7.79,5.76-14.64,13.05-30.66,22.31-47.74,9.78-18.04,20.22-34.37,30.48-48.88-2.9,2.81-5.8,5.62-8.7,8.43-13.96,7.24-33.77,18.48-54.61,34.16-47.61,35.82-75.68,76.03-101.32,133.82-14.66,33.03-25.68,65.4-33.99,96.04,11.68.68,23.78,1.04,36.18,1.04,5.05,0,10.06-.06,15-.18Z"/><path class="cls-19" d="M594.46,340.16c-2.34,7.28-8.27,21.52-24.29,36.42-8.73,8.12-18.09,14.24-26.34,18.72h3.54c8.83-4.22,18.85-10.15,28.1-18.35,19.17-16.99,23.92-33.86,25.3-40.5-.83.64-3,2.22-6.32,3.7Z"/><path class="cls-12" d="M510.49,362c18.26-62.12,40.07-132.03,120.24-195,21.36-16.77,41.63-28.95,55.82-36.79-13.96,7.24-33.77,18.48-54.61,34.16-47.61,35.82-75.68,76.03-101.32,133.82-14.66,33.03-25.69,65.41-33.99,96.05,1.84.11,3.69.21,5.56.3,2.58-11.89,5.44-22.77,8.31-32.54Z"/><path class="cls-57" d="M523.55,316.83c5.05-12.4,13.4-31.66,26.45-55.13,12.88-23.17,21.13-37.78,37.64-56.33,5.69-6.39,21.31-23.31,44.58-40.62,0,0,17.22-12.82,42.77-27.93,3.33-1.97,7.22-4.18,7.22-4.18,1.5-.85,2.95-1.66,4.34-2.43-13.96,7.24-33.77,18.48-54.61,34.16-47.61,35.82-75.68,76.03-101.32,133.82-14.66,33.03-25.69,65.41-33.99,96.05.55.03,1.11.06,1.66.09,5.65-22.82,13.71-49.15,25.26-77.5Z"/><path class="cls-45" d="M686.55,130.21c-1.34.69-2.74,1.44-4.18,2.2-7.77,11.62-15.52,24.25-22.9,37.86-9.26,17.08-16.55,33.1-22.31,47.74-3.56,2.45-7.81,5.11-12.77,7.79-5.3,2.86-10.33,5.16-14.81,6.98.91.13,2.92.36,5.58.26,4.41-1.81,9.34-4.07,14.54-6.87,4.96-2.68,9.21-5.34,12.77-7.79,5.76-14.64,13.05-30.66,22.31-47.74,9.78-18.04,20.22-34.37,30.48-48.88-2.9,2.81-5.8,5.62-8.7,8.43Z"/><path class="cls-9" d="M631.19,231.25c-5.51,9.39-10.84,19.83-15.47,31.25-3.01,7.42-5.41,14.49-7.34,21.14-3.3,1.95-6.77,3.92-10.42,5.89-10.6,5.71-20.91,10.44-30.53,14.36,2.54-.84,5.98-2,10.02-3.49,0,0,1.94-.71,3.83-1.44,12.49-4.81,23.29-9.98,32.41-14.93,1.93-6.65,4.33-13.72,7.34-21.14,5.64-13.92,12.33-26.4,19.1-37.28-2.98,1.89-5.96,3.77-8.94,5.66Z"/><path class="cls-3" d="M586.81,329c-8.16,5.9-16.67,9.63-23.25,11.97,1.46.56,5.48,1.9,11.16,1.88-2.86-.44-4.9-1.15-5.85-1.51,6.59-2.33,15.09-6.06,23.25-11.97,22.49-16.27,24.75-36.32,25.11-41.56-1.64.96-3.56,2.02-5.69,3.11-1.19,7.95-5.77,24.36-24.73,38.08Z"/><path class="cls-8" d="M660.25,222.1c26.89-11.4,34.96-21.2,37.33-28.07,2.77-8.04-.49-17.22,7.98-30.66,1.69-2.67,3.36-4.76,4.41-6-6.9,2.13-14.69,5.64-20.38,11.7-8.74,9.31-5.8,17.5-13.03,31.82-4.3,8.51-10.37,15.58-16.32,21.2Z"/><path class="cls-5" d="M679.48,202.36c7.23-14.32,4.29-22.51,13.03-31.82,4.18-4.46,9.5-7.53,14.77-9.69,1.05-1.46,2.01-2.66,2.7-3.48-6.9,2.13-14.69,5.64-20.38,11.7-8.74,9.31-5.8,17.5-13.03,31.82-4.3,8.51-10.37,15.58-16.32,21.2,2.83-1.2,5.4-2.37,7.83-3.54,4.25-4.65,8.29-10.04,11.4-16.2Z"/><path class="cls-42" d="M474.62,568.78l-9.44.48s1.34,10.88-8.76,17.37c0,0,10.63,7.4,14.7,26.44l-1.11-21.87c-1.67-.22-3.01-1.61-3.09-3.35-.1-1.97,1.42-3.65,3.39-3.75,1.97-.1,3.65,1.42,3.75,3.39.09,1.74-1.08,3.24-2.71,3.65l.85,21.89s1.23-17.65,12.69-27.83c0,0-8.81-2.52-10.26-16.41Z"/><path class="cls-22" d="M464.22,563.41h10.81c.61,0,1.1.49,1.1,1.1v2.74c0,.61-.49,1.1-1.1,1.1h-10.81c-.61,0-1.1-.49-1.1-1.1v-2.74c0-.61.49-1.1,1.1-1.1Z" transform="translate(967.36 1107.2) rotate(177.09)"/><path class="cls-18" d="M472.71,553.26c-.6.03-1.15.37-1.39.92-.6,1.36-1.54,2.26-2.65,2.31-1.11.05-2.14-.75-2.86-2.04-.29-.52-.87-.81-1.47-.78l-1.36.07c-.86.04-1.52.77-1.48,1.63l.24,4.93c.04.86.77,1.52,1.63,1.48l12.14-.6c.86-.04,1.52-.77,1.48-1.63l-.24-4.93c-.04-.86-.77-1.52-1.63-1.48l-2.41.12Z"/><path class="cls-61" d="M470.29,584.1s.03,0,.04,0l-.77-15.06-4.4.22s1.34,10.88-8.76,17.37c0,0,10.63,7.4,14.7,26.44l-1.11-21.87c-1.67-.22-3.01-1.61-3.09-3.35-.1-1.97,1.42-3.65,3.39-3.75Z"/><path class="cls-60" d="M464.42,563.67c-.78.04-1.39.71-1.35,1.49l.11,2.09c.04.78.71,1.39,1.49,1.35l4.86-.25-.25-4.93-4.86.25Z"/><path class="cls-55" d="M469.57,568.14c-3.35.12-5.18-.24-5.95-.42-.15-.03-.27-.06-.36-.08.2.59.76,1,1.41.97l10.15-.52c.68-.03,1.21-.54,1.33-1.17-.08.04-.19.09-.33.16-.49.22-2.14.92-6.25,1.07Z"/><path class="cls-40" d="M468.67,556.49c-1.11.05-2.14-.75-2.86-2.04-.29-.52-.87-.81-1.47-.78l-1.36.07c-.86.04-1.52.77-1.48,1.63l.24,4.93c.04.86.77,1.52,1.63,1.48l5.81-.29-.26-5.04c-.08.01-.17.03-.26.04Z"/><path class="cls-13" d="M462.28,561.04c-.15-.04-.28-.08-.37-.11.27.53.83.88,1.46.85l12.14-.6c.7-.03,1.26-.53,1.43-1.17-.14.08-.35.2-.62.33-2.26,1.11-3.62.61-7.15.79-2.96.14-4.36.6-6.88-.09Z"/><path class="cls-26" d="M386.02,789.63l-5.31-7.14c-1.57.31-3.11.47-4.6.47-3.9,0-7.47-.9-10.71-2.71-3.25-1.81-5.82-4.34-7.73-7.58-1.91-3.25-2.86-6.9-2.86-10.95s.95-7.69,2.86-10.92c1.91-3.23,4.49-5.74,7.73-7.55,3.25-1.81,6.82-2.71,10.71-2.71s7.47.91,10.71,2.71c3.25,1.81,5.8,4.33,7.67,7.55,1.87,3.23,2.8,6.87,2.8,10.92,0,3.54-.72,6.78-2.15,9.71-1.44,2.93-3.43,5.36-5.99,7.29l9.09,10.92h-12.22ZM368.11,770.47c1.99,2.18,4.65,3.28,8,3.28s5.95-1.1,7.94-3.31c1.99-2.2,2.98-5.11,2.98-8.74s-.99-6.58-2.98-8.76c-1.99-2.18-4.63-3.28-7.94-3.28s-6.01,1.08-8,3.25c-1.99,2.17-2.98,5.1-2.98,8.79s.99,6.58,2.98,8.77Z"/><path class="cls-26" d="M412.94,741.11v24.79c0,2.48.61,4.39,1.83,5.73,1.22,1.34,3.01,2.01,5.37,2.01s4.17-.67,5.43-2.01c1.26-1.34,1.89-3.25,1.89-5.73v-24.79h10.09v24.73c0,3.7-.79,6.83-2.36,9.38-1.57,2.56-3.69,4.49-6.35,5.79-2.66,1.3-5.62,1.95-8.88,1.95s-6.19-.64-8.77-1.92c-2.58-1.28-4.61-3.21-6.11-5.79-1.5-2.58-2.24-5.71-2.24-9.41v-24.73h10.09Z"/><path class="cls-26" d="M454.72,741.11v41.44h-10.09v-41.44h10.09Z"/><path class="cls-26" d="M472.14,774.75h13.22v7.79h-23.31v-41.44h10.09v33.64Z"/><path class="cls-26" d="M500.29,774.75h13.22v7.79h-23.31v-41.44h10.09v33.64Z"/><path class="cls-26" d="M560.79,761.03c-1.1,1.99-2.79,3.59-5.08,4.81-2.28,1.22-5.12,1.83-8.5,1.83h-6.26v14.87h-10.09v-41.44h16.35c3.31,0,6.1.57,8.38,1.71,2.28,1.14,3.99,2.71,5.13,4.72,1.14,2.01,1.71,4.31,1.71,6.91,0,2.4-.55,4.59-1.65,6.58ZM550.76,758.28c.95-.9,1.42-2.18,1.42-3.84s-.47-2.93-1.42-3.84c-.94-.9-2.38-1.36-4.31-1.36h-5.49v10.39h5.49c1.93,0,3.36-.45,4.31-1.36Z"/><path class="cls-26" d="M577.79,749.19v8.38h13.52v7.79h-13.52v9.09h15.29v8.09h-25.38v-41.44h25.38v8.09h-15.29Z"/><path class="cls-26" d="M636.7,782.54h-10.09l-16.88-25.56v25.56h-10.09v-41.44h10.09l16.88,25.68v-25.68h10.09v41.44Z"/><path class="cls-30" d="M273.09,818.33c1.05-1.9,2.51-3.38,4.38-4.44,1.87-1.06,4-1.59,6.37-1.59,2.91,0,5.4.77,7.47,2.3,2.07,1.54,3.46,3.63,4.16,6.29h-6.57c-.49-1.02-1.18-1.8-2.08-2.34-.9-.54-1.92-.8-3.06-.8-1.84,0-3.33.64-4.47,1.92-1.14,1.28-1.71,2.99-1.71,5.13s.57,3.85,1.71,5.13c1.14,1.28,2.63,1.92,4.47,1.92,1.14,0,2.16-.27,3.06-.8.9-.54,1.59-1.31,2.08-2.34h6.57c-.7,2.65-2.08,4.75-4.16,6.27-2.07,1.53-4.56,2.29-7.47,2.29-2.38,0-4.5-.53-6.37-1.59-1.87-1.06-3.34-2.53-4.38-4.42s-1.57-4.04-1.57-6.46.52-4.58,1.57-6.48Z"/><path class="cls-30" d="M311.65,837.11l-5.1-9.26h-1.43v9.26h-5.97v-24.52h10.02c1.93,0,3.58.34,4.94,1.01,1.36.68,2.38,1.6,3.06,2.78.68,1.18,1.01,2.49,1.01,3.93,0,1.63-.46,3.09-1.38,4.37-.92,1.28-2.28,2.19-4.07,2.72l5.66,9.71h-6.74ZM305.11,823.62h3.7c1.09,0,1.92-.27,2.46-.8.55-.54.82-1.29.82-2.27s-.27-1.67-.82-2.2c-.55-.54-1.37-.8-2.46-.8h-3.7v6.08Z"/><path class="cls-30" d="M327.89,817.37v4.96h8v4.61h-8v5.38h9.05v4.79h-15.02v-24.52h15.02v4.79h-9.05Z"/><path class="cls-30" d="M356.07,832.78h-9.15l-1.47,4.33h-6.25l8.87-24.52h6.92l8.87,24.52h-6.32l-1.47-4.33ZM354.54,828.17l-3.04-8.98-3,8.98h6.04Z"/><path class="cls-30" d="M384.19,812.59v4.79h-6.5v19.73h-5.97v-19.73h-6.5v-4.79h18.97Z"/><path class="cls-30" d="M393.17,812.59v24.52h-5.97v-24.52h5.97Z"/><path class="cls-30" d="M420.52,812.59l-8.7,24.52h-7.47l-8.7-24.52h6.36l6.08,18.51,6.11-18.51h6.32Z"/><path class="cls-30" d="M428.97,812.59v24.52h-5.97v-24.52h5.97Z"/><path class="cls-30" d="M450.94,812.59v4.79h-6.5v19.73h-5.97v-19.73h-6.5v-4.79h18.97Z"/><path class="cls-30" d="M474.97,812.59l-8.49,16.42v8.1h-5.97v-8.1l-8.49-16.42h6.78l4.75,10.27,4.72-10.27h6.71Z"/><path class="cls-30" d="M506.02,812.59v24.52h-5.97v-10.09h-9.29v10.09h-5.97v-24.52h5.97v9.61h9.29v-9.61h5.97Z"/><path class="cls-30" d="M525.58,832.78h-9.15l-1.47,4.33h-6.25l8.87-24.52h6.92l8.87,24.52h-6.32l-1.47-4.33ZM524.04,828.17l-3.04-8.98-3,8.98h6.04Z"/><path class="cls-30" d="M540.11,836.48c-1.42-.58-2.56-1.44-3.41-2.58-.85-1.14-1.3-2.51-1.34-4.12h6.36c.09.91.41,1.6.94,2.08.54.48,1.23.72,2.1.72s1.58-.2,2.1-.61c.51-.41.77-.97.77-1.69,0-.61-.2-1.11-.61-1.5-.41-.4-.91-.72-1.5-.98-.59-.26-1.44-.55-2.53-.87-1.58-.49-2.88-.98-3.88-1.47s-1.86-1.21-2.58-2.17c-.72-.95-1.08-2.2-1.08-3.74,0-2.28.83-4.07,2.48-5.36,1.65-1.29,3.81-1.94,6.46-1.94s4.88.65,6.53,1.94c1.65,1.29,2.54,3.09,2.66,5.4h-6.46c-.05-.79-.34-1.41-.87-1.87-.54-.45-1.22-.68-2.06-.68-.72,0-1.3.19-1.75.58-.44.38-.66.94-.66,1.66,0,.79.37,1.41,1.12,1.85s1.91.92,3.49,1.43c1.58.54,2.87,1.05,3.86,1.54.99.49,1.84,1.2,2.57,2.13.72.93,1.08,2.13,1.08,3.6s-.35,2.67-1.06,3.81c-.71,1.14-1.74,2.05-3.09,2.72-1.35.68-2.95,1.01-4.79,1.01s-3.4-.29-4.82-.87Z"/><path class="cls-30" d="M586.88,837.11h-5.97l-9.99-15.12v15.12h-5.97v-24.52h5.97l9.99,15.19v-15.19h5.97v24.52Z"/><path class="cls-30" d="M596.46,835.74c-1.92-1.07-3.45-2.57-4.58-4.49-1.13-1.92-1.69-4.08-1.69-6.48s.56-4.55,1.69-6.46c1.13-1.91,2.65-3.4,4.58-4.47,1.92-1.07,4.03-1.61,6.34-1.61s4.42.54,6.34,1.61c1.92,1.07,3.43,2.56,4.54,4.47,1.11,1.91,1.66,4.06,1.66,6.46s-.56,4.56-1.68,6.48c-1.12,1.92-2.63,3.42-4.54,4.49-1.91,1.07-4.02,1.61-6.32,1.61s-4.42-.54-6.34-1.61ZM607.5,829.95c1.17-1.3,1.76-3.03,1.76-5.17s-.59-3.89-1.76-5.19c-1.18-1.29-2.74-1.94-4.7-1.94s-3.56.64-4.73,1.92c-1.18,1.28-1.76,3.02-1.76,5.2s.59,3.89,1.76,5.19c1.17,1.29,2.75,1.94,4.73,1.94s3.52-.65,4.7-1.96Z"/><path class="cls-30" d="M632.04,832.5h7.82v4.61h-13.8v-24.52h5.97v19.91Z"/><path class="cls-30" d="M648.7,812.59v24.52h-5.97v-24.52h5.97Z"/><path class="cls-30" d="M680.8,812.59v24.52h-5.97v-14.71l-5.48,14.71h-4.82l-5.52-14.74v14.74h-5.97v-24.52h7.05l6.88,16.97,6.81-16.97h7.02Z"/><path class="cls-30" d="M691.07,812.59v24.52h-5.97v-24.52h5.97Z"/><path class="cls-30" d="M713.04,812.59v4.79h-6.5v19.73h-5.97v-19.73h-6.5v-4.79h18.97Z"/><path class="cls-30" d="M720.09,836.48c-1.42-.58-2.56-1.44-3.41-2.58-.85-1.14-1.3-2.51-1.34-4.12h6.36c.09.91.41,1.6.94,2.08.54.48,1.23.72,2.1.72s1.58-.2,2.1-.61c.51-.41.77-.97.77-1.69,0-.61-.2-1.11-.61-1.5-.41-.4-.91-.72-1.5-.98-.59-.26-1.44-.55-2.53-.87-1.58-.49-2.88-.98-3.88-1.47s-1.86-1.21-2.58-2.17c-.72-.95-1.08-2.2-1.08-3.74,0-2.28.83-4.07,2.48-5.36,1.65-1.29,3.81-1.94,6.46-1.94s4.88.65,6.53,1.94c1.65,1.29,2.54,3.09,2.66,5.4h-6.46c-.05-.79-.34-1.41-.87-1.87-.54-.45-1.22-.68-2.06-.68-.72,0-1.3.19-1.75.58-.44.38-.66.94-.66,1.66,0,.79.37,1.41,1.12,1.85s1.91.92,3.49,1.43c1.58.54,2.87,1.05,3.86,1.54.99.49,1.84,1.2,2.57,2.13.72.93,1.08,2.13,1.08,3.6s-.35,2.67-1.06,3.81c-.71,1.14-1.74,2.05-3.09,2.72-1.35.68-2.95,1.01-4.79,1.01s-3.4-.29-4.82-.87Z"/></g></g></svg>