<?xml version="1.0" encoding="UTF-8"?>
<svg version="1.1" viewBox="0 0 2048 2048" width="100%" height="100" xmlns="http://www.w3.org/2000/svg">
<path transform="translate(1453,189)" d="m0 0 2 1-1 11-5 14-8 14-11 14-7 8-16 23-12 19-17 28-13 23-13 24-15 30-18 42-4 8-15 10-22 12-16 7h13l14-3 11-6 9-6 2 1-12 20-12 22-10 22-11 28-9 26 8 1 40 10 35 11 27 11 25 12 19 11 17 12 11 9 15 15 9 13 8 16 4 15v20l-4 16-8 16-8 11-11 12-12 11-18 13-21 12-29 14-26 10-30 10-34 9-40 8-44 6-41 4-39 2h-57l-40-2-41-4-37-5-33-6-29-7-25-7-27-9-27-11-29-14-20-12-17-13-12-11-10-11-10-15-6-14-3-12v-21l4-15 8-16 8-11 9-10 9-9 17-13 21-13 27-14 27-11 30-10 37-10 37-8 37-6 16-2v2l-9 2-35 6-38 9-39 12-22 9-24 12-16 10-13 10-10 9-10 12-8 15-3 10v20l4 13 7 12 12 13 10 8 16 10 16 8 25 10 32 10 30 7 39 7 42 5 38 3 22 1h83l49-3 45-5 36-6 36-8 30-9 29-11 16-8 14-8 14-11 9-9 9-14 4-10 1-5v-19l-4-13-5-10-10-13-9-9-13-10-19-12-17-9-26-11-15-5-35-10-10-1-22 11-30 13-27 10-3 1 15-2 24-6 23-8 20-9 12-6-1 12-4 15-9 19-9 13-11 12-8 8-15 11-17 10-20 9h-3v2l16 2h9l17-3 9-4 12-6-2 10-6 17-8 15-9 13-9 11-10 11-8 7-16 13-17 11-16 9-8 4-80-1-24-1-1-2 12-41 18-55 11-31 14-35 12-28 12-26 12-25 14-28 14-24 12-20 19-28 14-19 11-13 9-11 15-16 11-12 14-14 8-7 14-12 13-11 10-8 20-15 20-14 19-12 25-15-14 7-24 14-24 15-19 13-19 14-16 13-13 11-10 9-15 14-11 11-7 8-14 15-9 11-13 16-14 19-13 18-10 15-12 19-17 29-13 24-14 27-15 32-14 33-9 23-11 30-12 36-10 33-2 9-1 1-18-1-44-6-38-7-20-5 1-11 7-21 10-22 16-27 13-19 6-8 2 4 5 22 7 19 11 21 2 3-3-15-9-37-1-6v-18l4-21 8-23 12-25 13-22 16-24h1l2 12 5 8 3 1-1-5v-16l4-15 9-17 10-13 11-12 8-8 6-5h2l2 17 6 16 8 12 1 1 1-22 4-18 6-16 8-16 12-18 8-10 12-14 17-17 11-9 12-10 7-4-1 11 3 9 2 3 5-17 6-12 8-11 9-10 9-9 17-13 16-10 6-2-2 7v7l3 7 2-3 7-13 9-12 9-10 8-9 8-7 13-11 19-14 23-15 15-9 21-12 28-15 32-15z" fill="#3FDCF1"/>
<path transform="translate(973,569)" d="m0 0 1 2-9 2-35 6-38 9-39 12-22 9-24 12-16 10-13 10-10 9-10 12-8 15-3 10v20l4 13 7 12 12 13 10 8 16 10 16 8 25 10 32 10 30 7 39 7 42 5 38 3 22 1h83l49-3 45-5 36-6 36-8 30-9 29-11 16-8 14-8 14-11 9-9 9-14 4-10 1-5v-19l-4-13-5-10-10-13-9-9-13-10-19-12-17-9-26-11-15-5-42-12v-2l6-1 44 11 35 11 27 11 25 12 19 11 17 12 11 9 15 15 9 13 8 16 4 15v20l-4 16-8 16-8 11-11 12-12 11-18 13-21 12-29 14-26 10-30 10-34 9-40 8-44 6-41 4-39 2h-57l-40-2-41-4-37-5-33-6-29-7-25-7-27-9-27-11-29-14-20-12-17-13-12-11-10-11-10-15-6-14-3-12v-21l4-15 8-16 8-11 9-10 9-9 17-13 21-13 27-14 27-11 30-10 37-10 37-8 37-6z" fill="#000101"/>
<path transform="translate(1453,189)" d="m0 0 2 1-1 11-5 14-8 14-11 14-7 8-16 23-12 19-13 21-5-2-4-2-12 20-12 21-14 27-13 26-5-2-11-8-14-8-16-7-18-6-4 2-8 7-12 11-32 32v-3l13-14 4-7 21-21 8-7 14-12 13-11 10-8 20-15 20-14 19-12 25-15-14 7-24 14-24 15-19 13-19 14-16 13-13 11-10 9-15 14-11 11-7 8-14 15-9 11-13 16-14 19-13 18-10 15-12 19-17 29-13 24-14 27-15 32-14 33-9 23-11 30-12 36-10 33-2 9-1 1-18-1-44-6-38-7-20-5 1-11 7-21 10-22 16-27 13-19 6-8 2 4 5 22 7 19 11 21 2 3-3-15-9-37-1-6v-18l4-21 8-23 12-25 13-22 16-24h1l2 12 5 8 3 1-1-5v-16l4-15 9-17 10-13 11-12 8-8 6-5h2l2 17 6 16 8 12 1 1 1-22 4-18 6-16 8-16 12-18 8-10 12-14 17-17 11-9 12-10 7-4-1 11 3 9 2 3 5-17 6-12 8-11 9-10 9-9 17-13 16-10 6-2-2 7v7l3 7 2-3 7-13 9-12 9-10 8-9 8-7 13-11 19-14 23-15 15-9 21-12 28-15 32-15z" fill="#3FDCF1"/>
<path transform="translate(1156,893)" d="m0 0h8l1 1-1 20-4 20-6 18-12 23-12 16-12 14-12 12-11 9-15 11-15 9-19 10-22 9 20-4 24-8 22-11 16-11h3l-9 9-11 9-14 12-20 15-15 10-15 9-14 8-23 11-20 9-2-1 3-50 5-53 6-47 7-46 6-32 29 2 28 1h58l-5 5-17 12-18 11-14 8 29-10 24-11 19-11 9-6z" fill="#000101"/>
<path transform="translate(1257,581)" d="m0 0 8 1 40 10 35 11 27 11 25 12 19 11 17 12 11 9 15 15 9 13 8 16 4 15v20l-4 16-8 16-8 11-11 12-12 11-18 13-21 12-29 14-26 10-30 10-34 9-40 8-44 6-41 4-16 1h-18l4-3 29-13 22-12 24-16 21-16 13-11 10-10 2-1-18 2h-11l1-2 5-2 36-6 36-8 30-9 29-11 16-8 14-8 14-11 9-9 9-14 4-10 1-5v-19l-4-13-5-10-10-13-9-9-13-10-19-12-17-9-26-11-15-5-42-12v-2z" fill="#000101"/>
<path transform="translate(838,864)" d="m0 0 7 1 11 4 30 8 33 7 36 6 15 2-1 10-6 39-5 44-3 40-1 23v75l-5-2-17-12-14-11-13-11-13-12-11-11-7-8-11-13-13-18-12-19-11-21-9-22 1-3 4 4v2l4 2 8 7 15 10 13 7-6-8-10-12-13-18-7-10-4-10-1-7v-10l3-18 5-17 7-17z" fill="#40DDF2"/>
<path transform="translate(1088,610)" d="m0 0 1 3-3 7 4 2 8 11 12 13 9 8 16 11 16 9 19 8 7 3v3 3 4l-7 3h-3v2l16 2h9l17-3 9-4 12-6-2 10-6 17-8 15-9 13-9 11-10 11-8 7-16 13-17 11-16 9-8 4-80-1-24-1-1-2 12-41 18-55 11-31 14-35 10-24 4-4z"/>
<path transform="translate(830,1116)" d="m0 0h33l26 2 16 2 2 2-24-2h-44l-21 3-19 5-16 8-10 9-5 8-2 12 2 10 6 12 11 12 7 7 17 12 21 12 23 11 27 11 40 13 31 8 29 6 37 5 19 1h21l21-2 17-4 12-5 8-6 6-7 3-7v-16l-5-13-8-12-7-8-8-7-12-10-17-11-16-9-3-3h3l16 8 14 8 18 12 13 10 13 12 10 10 9 13 7 14 2 8v16l-4 11-8 10-8 7-14 8-16 6-23 5-16 2-14 1h-27l-27-2-35-5-28-6-29-8-30-10-27-11-29-14-16-9-18-12-13-10-10-9-7-6-9-11-7-10-6-12-3-13v-8l3-12 7-11 10-9 14-8 16-6 22-5z" fill="#000202"/>
<path transform="translate(898,803)" d="m0 0 11 1 34 5h10v-1l17 1 33 3 37 2h83l49-3 37-4h7l-4 2h10l19-2-17 17-14 11-20 15-22 14-24 13-27 12-7 2h-57l-40-2-41-4-37-5-33-6v-1l9-1 26 4h8l-9-11-11-13-11-16-9-15-7-15z" fill="#3FDCF1"/>
<path transform="translate(981,576)" d="m0 0 4 1 4 8 6 11 8 13 9 12 10 11 7 8 8 7 8 6v6l-14 34-16 44-11 34-8 28-2 6-18-1-44-6-38-7-20-5 1-11 7-21 10-22 16-27 13-19 6-8 2 4 5 22 7 19 11 21 2 3-3-15-9-37-1-6v-18l4-21 8-23 12-25 13-22z" fill="#000101"/>
<path transform="translate(1453,189)" d="m0 0 2 1-1 11-5 14-8 14-11 14-7 8-16 23-12 19-13 21-5-2-4-2-12 20-12 21-14 27-13 26-5-2-11-8-14-8-16-7-18-6-4 2-8 7-12 11-32 32v-3l13-14 4-7 21-21 8-7 14-12 13-11 10-8 20-15 20-14 19-12 25-15-14 7-24 14-24 15-19 13-4 3h-5l-10-7-9-6 1-6 11-14 23-23 14-11 13-10 26-17 15-9 21-12 28-15 32-15z" fill="#000202"/>
<path transform="translate(1060,938)" d="m0 0h12l16 3 16 8 12 9 8 10 3 5h2l12-23 4 4 2 3v3h2l-2 6-9 15-13 16-11 12-8 8-11 9-15 11-15 9-19 10-22 9h-3l-9-11-8-11-3-20-3-8v-13l3-7 3-22 8-10 7-8 16-10 13-5z" fill="#3FDCF1"/>
<path transform="translate(1049,1164)" d="m0 0 16 8 16 9 18 12 13 10 13 12 10 10 9 13 7 14 2 8v16l-4 11-8 10-8 7-14 8-16 6-23 5-16 2-14 1h-27l-27-2-35-5-24-5-2-2 31-6 24-8 24-11 6-3 16 1h21l21-2 17-4 12-5 8-6 6-7 3-7v-16l-5-13-8-12-7-8-8-7-12-10-17-11-16-9-3-3z" fill="#000303"/>
<path transform="translate(838,864)" d="m0 0 7 1 11 4 30 8 33 7 36 6 15 2-1 10-6 39-2 12-8 3-3 13-7-6-2-1v-19l-10-8-15-7-16-3h-14l-16 4-14 7-9 7-10 11-4-1-7-11-3-8-1-7v-10l3-18 5-17 7-17z" fill="#000101"/>
<path transform="translate(832,1232)" d="m0 0 6 2 29 13 28 10 25 8 31 8 29 6 37 5 1 2-23 11-22 8-21 5-19 3-29-8-30-10-27-11-29-14 1-2 5 1 18 8 3 1-4-10-4-11-4-16z" fill="#3FDCF1"/>
<path transform="translate(1228,1517)" d="m0 0h21l13 20 19 29v2h2v-51h20l1 1v84h-22l-21-32-10-15-1-2-1 49h-22v-84z" fill="#fff"/>
<path transform="translate(762,1516)" d="m0 0h16l10 3 10 6 5 5 6 8 4 11 1 6v8l-3 14-6 10-7 7 6 8 11 13v2h-25l-11-14h-17l-10-3-10-6-8-8-6-12-2-9v-11l3-12 6-10 8-8 11-6zm3 19-8 3-7 8-2 6v15l5 10 6 5 6 2h10l10-5 6-9 1-4v-13l-4-10-7-6-6-2z" fill="#fff"/>
<path transform="translate(1058,1334)" d="m0 0h20l14 2 13 4 9 6 5 8v10l-6 12-10 10-15 10-21 10-21 7-22 5-13 2-13 1h-12l-17-2-12-3-9-5-5-4-3-6-1-7 3-10 8-10 12-10 19-11 3 1-14 8-12 11-5 8-1 6 3 7 5 4 12 4h33l23-4 23-6 21-8 15-8 10-8 6-9v-8l-4-6-6-4-9-3-13-2-13-1z" fill="#02090A"/>
<path transform="translate(825,1517)" d="m0 0h20l1 1 1 57 3 5 7 3 10-1 5-4 2-5 1-56h21v57l-3 11-6 8-6 5-9 4-4 1h-16l-10-3-8-6-6-8-3-9z" fill="#fff"/>
<path transform="translate(1452,322)" d="m0 0v3l-7 10-8 16-4 17-3 25-4 11-10 13-13 11-16 10-23 12-9 4-2-1 14-15 11-15 10-19 6-18 5-20 7-14 11-12 15-10 14-6z" fill="#40DDF2"/>
<path transform="translate(1087,1517)" d="m0 0h40l10 3 6 4 6 7 3 10v8l-4 11-9 8-13 4h-18v30h-21zm21 17v21h16l5-4 1-2v-9l-5-5-2-1z" fill="#fff"/>
<path transform="translate(1162,1517)" d="m0 0h52l1 2v15h-32v17h28v16h-28v18h31v17h-52z" fill="#fff"/>
<path transform="translate(944,1033)" d="m0 0h1l1 28 6 1 1-2 1 63-5-2-17-12-14-11-13-11-13-12-9-9v-2l4-1h14l14-3 12-5 3-2 2-11 8-5 4-1z" fill="#000101"/>
<path transform="translate(957,1153)" d="m0 0h17l1 1v8l-3 1 4 16 4 8 5 6 8 5-6 7-7 10-7 15-4 15-1 5h-2l-1-25v-15l4-3v-7l-3-3-7 1-2 3 1 6 5 4 2 43-2-2-6-18-9-17-8-10-6-5 5-5 6-7 5-11 2-14-4-2v-8l1-1zm9 10-4 2h9v-2z" fill="#40DDF2"/>
<path transform="translate(1e3 1517)" d="m0 0h21l1 2-1 67h27l1 1v14l-1 1h-48z" fill="#fff"/>
<path transform="translate(946,1517)" d="m0 0h21v69h27v16h-48z" fill="#fff"/>
<path transform="translate(1337,1664)" d="m0 0h15l13 32 2-3 12-29h15v50h-12l-1-26-10 26h-11l-10-26-1 26h-12z" fill="#40DDF2"/>
<path transform="translate(910,1517)" d="m0 0h21v85h-21z" fill="#fff"/>
<path transform="translate(622,969)" d="m0 0 2 4 4 10 6 9 8 7 10 5 8 2-2 2-13 5-10 8-7 10-4 10-2 4-4-12-7-11-8-7-12-6-6-2v-1l13-4 9-6 7-7 6-12z" fill="#40DDF2"/>
<path transform="translate(1156,1664)" d="m0 0h14l12 19 6 9 1-28h13v50h-13l-7-10-12-18-1 28h-12z" fill="#40DDF2"/>
<path transform="translate(1228,1663)" d="m0 0h12l8 3 7 6 4 7 1 4v11l-4 10-9 8-5 2h-15l-10-5-5-6-3-6-1-5v-7l3-9 5-7 9-5zm3 11-6 3-3 4-1 3v9l3 6 6 4h8l5-3 4-6v-11l-4-6-6-3z" fill="#40DDF2"/>
<path transform="translate(612,1664)" d="m0 0h28l6 3 5 6 1 9-4 8-6 4 2 5 8 14v1h-14l-10-17v-2h-3v19h-13zm13 10v12h10l4-3-1-7-3-2z" fill="#40DDF2"/>
<path transform="translate(1058,1334)" d="m0 0h20l14 2 13 4 9 6 5 8v10l-6 12-10 10-15 10-21 10-17 6-4-1 9-7 7-7 7-10 3-3 15-8 10-8 6-9v-8l-4-6-6-4-9-3-13-2-13-1z" fill="#010405"/>
<path transform="translate(992,1664)" d="m0 0h13v19h19v-19h12v50h-12v-21h-19v21h-13z" fill="#40DDF2"/>
<path transform="translate(1059,1664)" d="m0 0h15l5 12 13 36v2h-13l-3-9h-19l-1 6-2 3h-12l2-9zm7 15-5 14v2h11l-2-9-3-7z" fill="#40DDF2"/>
<path transform="translate(712,1664)" d="m0 0h15l5 12 13 36v2h-13l-3-9h-19l-2 9h-13l2-9zm7 15-5 14v2h11l-2-9-3-7z" fill="#40DDF2"/>
<path transform="translate(983,956)" d="m0 0h7v25l-3 72-1 10h-9l-7-1 4-43 6-47 2-14z" fill="#3FDCF1"/>
<path transform="translate(576,1663)" d="m0 0h11l9 4 5 4 4 8-1 2h-12l-6-5-6-1-7 3-3 4-1 9 3 7 5 4h7l5-3 2-2h14l-3 8-8 7-6 2h-14l-10-5-6-8-2-5v-15l4-8 5-5 7-4z" fill="#40DDF2"/>
<path transform="translate(1108,1663)" d="m0 0h13l8 4 4 6v5h-13l-3-4h-6l-1 5 8 4 10 4 5 5 1 3v8l-4 7-7 4h-15l-6-3-5-6-1-6h13l3 4h7l1-5-4-3-13-5-5-4-2-5v-7l4-7z" fill="#40DDF2"/>
<path transform="translate(1477,1663)" d="m0 0h12l8 4 4 5 1 6h-13l-4-4h-5l-1 1v5l17 7 5 5 2 5-1 8-6 7-5 2h-15l-8-5-4-8v-2h14l2 4h9l-1-6-12-5-6-3-5-5-1-7 2-7 6-5z" fill="#40DDF2"/>
<path transform="translate(810,1664)" d="m0 0h14l11 34 2-3 10-30 1-1h13l-3 10-14 39-1 1h-15l-4-9-14-40z" fill="#40DDF2"/>
<path transform="translate(659,1664)" d="m0 0h31v10h-19v9h17v10l-16 1-1 10h19v10h-31z" fill="#40DDF2"/>
<path transform="translate(1067,1386)" d="m0 0 3 1-8 11-10 10-4 3h-2v2l-22 5-13 2h-5l-13-13v-2l-13-1v-1l25-1 23-4 23-6z" fill="#40DDF2"/>
<path transform="translate(926,1664)" d="m0 0h14l8 17v2h2l3-9 5-10h14l-2 6-14 27-1 17h-12l-1-17-16-31z" fill="#40DDF2"/>
<path transform="translate(1421,1664)" d="m0 0h39v9l-1 1h-12v40h-13v-40h-13z" fill="#40DDF2"/>
<path transform="translate(884,1664)" d="m0 0h39v10h-13v40h-13v-40h-12l-1-1z" fill="#40DDF2"/>
<path transform="translate(748,1664)" d="m0 0h39v9l-1 1h-13v40h-12v-40h-13z" fill="#40DDF2"/>
<path transform="translate(957,1153)" d="m0 0h17l1 1v8l-3 1 4 16 4 8 2 5-11-5-8-1v5l-9-2-6-1 1-6 2-7 1-10-4-2v-8l1-1zm9 10-4 2h9v-2z" fill="#010606"/>
<path transform="translate(1107,1030)" d="m0 0 2 1-9 9-11 9-14 12-20 15-18 12-4-1 12-10-17-9-9-1v-1l25-5 24-8 22-11 16-11z" fill="#40DDF2"/>
<path transform="translate(1210,715)" d="m0 0 3 4 4 7-9 14-11 14-11 12-8 7-16 13-4 2-4-5 8-8 8-7 9-9 9-11 11-15 10-17z" fill="#3FDCF1"/>
<path transform="translate(1282,1664)" d="m0 0h12v40h16v10h-28z" fill="#40DDF2"/>
<path transform="translate(929,252)" d="m0 0 2 1 4 10 4 5 8 5 7 2v2l-10 4-6 5-5 8-2 6h-2l-6-12-5-5-6-4-6-2v-2l10-4 8-7 4-8z" fill="#3AC9DC"/>
<path transform="translate(973,569)" d="m0 0 1 2-9 2-35 6-38 9-39 12-22 9-24 12-16 10-4 3h-2l1-5 8-6 17-10 21-10 20-8h2v-2l38-10 40-8z" fill="#3BCEE2"/>
<path transform="translate(1222,1320)" d="m0 0h2l3 9 7 8 8 4 4 1v2l-9 4-8 7-4 8-1 4h-2l-3-9-8-9-8-4-3-1v-2l9-3 8-7 4-8z" fill="#3AC9DC"/>
<path transform="translate(982,592)" d="m0 0 3 1-13 24-8 16-8 20-3 9h-1l-4-15-1-3 7-19 10-21h3 2l1-3 10-8z" fill="#3FDCF1"/>
<path transform="translate(1452,322)" d="m0 0v3l-7 10-8 16-3 11-4-1-9-6-5-3 1-4-5-1 2-4 10-8 14-8z" fill="#010404"/>
<path transform="translate(1402,1664)" d="m0 0h13v50h-12l-1-2z" fill="#40DDF2"/>
<path transform="translate(1316,1664)" d="m0 0h12v50h-12z" fill="#40DDF2"/>
<path transform="translate(866,1664)" d="m0 0h12v50h-12z" fill="#40DDF2"/>
<path transform="translate(793,1664)" d="m0 0h12v50h-12z" fill="#40DDF2"/>
<path transform="translate(970,1132)" d="m0 0 6 1 1 14-1 2-6 1-22 1-3-2-1-13 3-3h5l5 5h5l3-5z" fill="#000101"/>
<path transform="translate(1379,424)" d="m0 0 6 1 3-1 10 3v4l-11 7-23 12-9 4-2-1 14-15 10-13z" fill="#010404"/>
<path transform="translate(1402,525)" d="m0 0 2 2 4 8 7 5 4 1v2l-8 4-6 7-2 5-2-3-5-8-10-5v-2l8-3 6-7z" fill="#3BCDE0"/>
<path transform="translate(830,1116)" d="m0 0h33l26 2 16 2 2 2-24-2h-44l-21 3-13 3-4-1 8-4z" fill="#38C4D7"/>
<path transform="translate(1064,1219)" d="m0 0 6 9 6 3-3 3-5 4-3 6-3-4-5-6-4-2 4-3 5-5z" fill="#3CD0E4"/>
<path transform="translate(1017,725)" d="m0 0 2 1-12 36-5 16h-2l-1-6 9-27 8-19z" fill="#3FDAEF"/>
<path transform="translate(973,569)" d="m0 0 1 2-9 2-35 6-18 4-3-1 2-2v-1l33-6z" fill="#061518"/>
<path transform="translate(970,1132)" d="m0 0 6 1 1 14-1 2h-10l2-3v-8l-3-3v-2z" fill="#010405"/>
<path transform="translate(964,1135)" d="m0 0 4 2 1 1v8l-2 2 3 2h-9l-1-11z" fill="#40DDF2"/>
<path transform="translate(951,1137)" d="m0 0h5l3 4-1 5-3 2-5-1-2-2v-5z" fill="#40DDF2"/>
<path transform="translate(961,1229)" d="m0 0h2l1 2 1 23-2-2-5-16v-5z" fill="#020708"/>
<path transform="translate(962,1153)" d="m0 0h5l2 4-1 6-6 2-4-1h3v-10z" fill="#40DDF2"/>
<path transform="translate(967,1153)" d="m0 0h7l1 1v8l-1 1h-6v-6z"/>
<path transform="translate(818,960)" d="m0 0 5 4v2l3 1v6l-3 1-4-8z" fill="#0D2E33"/>
<path transform="translate(954,1155)" d="m0 0 4 1 1 1v5l-6 1-2-2 1-5z" fill="#40DDF2"/>
<path transform="translate(619,1032)" d="m0 0h7l-2 9-2 4-3-10z" fill="#020909"/>
<path transform="translate(593 1e3)" d="m0 0h5v6l-7-1-6-2v-1z" fill="#040D0F"/>
<path transform="translate(622,969)" d="m0 0 2 4 2 9h-7l2-9z" fill="#081B1E"/>
<path transform="translate(1215,406)" d="m0 0v3l-7 7-8 10h-2l2-4z" fill="#40DDF2"/>
<path transform="translate(967,1235)" d="m0 0h3l-1 10-1 5h-2v-14z" fill="#040F10"/>
<path transform="translate(649 1e3)" d="m0 0 11 2-2 2-9 2-1-5z" fill="#061517"/>
<path transform="translate(984,1194)" d="m0 0 4 1 5 4-5 2-4-6z" fill="#081E21"/>
<path transform="translate(984,1352)" d="m0 0 2 1z"/>
<path transform="translate(986,1351)" d="m0 0 2 1z"/>
<path transform="translate(988,1350)" d="m0 0 2 1z" fill="#206E79"/>
<path transform="translate(990,1349)" d="m0 0 2 1z" fill="#40DDF2"/>
<path transform="translate(993,1348)" d="m0 0 2 1z" fill="#40DDF2"/>
<path transform="translate(1113,1025)" d="m0 0 2 1z" fill="#40DDF2"/>
<path transform="translate(995,1347)" d="m0 0" fill="#40DDF2"/>
<path transform="translate(1109,1029)" d="m0 0" fill="#40DDF2"/>
<path transform="translate(1110,1028)" d="m0 0" fill="#40DDF2"/>
<path transform="translate(1111,1027)" d="m0 0" fill="#40DDF2"/>
<path transform="translate(1112,1026)" d="m0 0" fill="#40DDF2"/>
<path transform="translate(1352,454)" d="m0 0" fill="#40DDF2"/>
</svg>
