<?xml version="1.0" encoding="UTF-8"?>
<svg xmlns="http://www.w3.org/2000/svg" viewBox="0 0 1329.7 1142.81">
  <defs>
    <style>
      .cls-1 {
        fill: #d12d3a;
      }

      .cls-1, .cls-2, .cls-3, .cls-4, .cls-5, .cls-6, .cls-7, .cls-8, .cls-9, .cls-10, .cls-11, .cls-12, .cls-13, .cls-14, .cls-15, .cls-16, .cls-17 {
        font-family: ArchivoBlack-Regular, 'Archivo Black';
      }

      .cls-1, .cls-6, .cls-10, .cls-17 {
        font-size: 173.82px;
      }

      .cls-1, .cls-17 {
        letter-spacing: -.03em;
      }

      .cls-18 {
        letter-spacing: 0em;
      }

      .cls-19 {
        letter-spacing: -.03em;
      }

      .cls-2, .cls-3, .cls-20, .cls-6, .cls-8, .cls-14, .cls-15, .cls-17 {
        fill: #2b2e37;
      }

      .cls-2, .cls-3, .cls-6, .cls-8, .cls-12, .cls-14, .cls-15, .cls-17, .cls-21 {
        stroke-miterlimit: 10;
      }

      .cls-2, .cls-3, .cls-6, .cls-8, .cls-14, .cls-15, .cls-17, .cls-21 {
        stroke: #2b2e37;
      }

      .cls-2, .cls-11 {
        font-size: 340.71px;
        letter-spacing: -.02em;
      }

      .cls-3, .cls-13, .cls-16 {
        font-size: 350.87px;
        letter-spacing: -.02em;
      }

      .cls-22 {
        isolation: isolate;
      }

      .cls-4, .cls-23 {
        fill: #56b4bb;
      }

      .cls-4, .cls-14 {
        font-size: 390.81px;
        letter-spacing: -.03em;
      }

      .cls-5 {
        font-size: 37.39px;
      }

      .cls-5, .cls-12 {
        fill: #fff;
      }

      .cls-20, .cls-24, .cls-23, .cls-25, .cls-26 {
        stroke-width: 0px;
      }

      .cls-24, .cls-9 {
        fill: #f8d40a;
      }

      .cls-6, .cls-10 {
        letter-spacing: -.02em;
      }

      .cls-7, .cls-8 {
        font-size: 366.91px;
        letter-spacing: -.02em;
      }

      .cls-7, .cls-25 {
        fill: #6b9b40;
      }

      .cls-27 {
        opacity: .75;
      }

      .cls-28 {
        letter-spacing: -.02em;
      }

      .cls-9, .cls-15 {
        font-size: 123.08px;
        letter-spacing: -.03em;
      }

      .cls-10 {
        fill: #a5c239;
      }

      .cls-29 {
        opacity: .1;
      }

      .cls-30 {
        letter-spacing: -.05em;
      }

      .cls-26, .cls-13 {
        fill: #ec6525;
      }

      .cls-11 {
        fill: #4eaeb2;
      }

      .cls-12 {
        font-size: 390.55px;
        stroke: #fff;
      }

      .cls-31 {
        letter-spacing: -.09em;
      }

      .cls-16 {
        fill: #71a141;
      }

      .cls-32 {
        mix-blend-mode: multiply;
      }

      .cls-21 {
        fill: none;
      }
    </style>
  </defs>
  <g class="cls-22">
    <g id="Layer_1" data-name="Layer 1">
      <g>
        <g>
          <g class="cls-29">
            <text class="cls-12" transform="translate(184.25 521.99)"><tspan class="cls-28" x="0" y="0">C</tspan><tspan class="cls-18" x="294.02" y="0">r</tspan><tspan class="cls-28" x="463.9" y="0">ea</tspan><tspan class="cls-28" x="0" y="343.07">ti</tspan><tspan class="cls-30" x="283.88" y="343.07">v</tspan><tspan class="cls-28" x="502.57" y="343.07">e</tspan></text>
          </g>
          <text class="cls-5" transform="translate(210.83 656.44)"><tspan class="cls-19" x="0" y="0">CRE</tspan><tspan class="cls-31" x="82.37" y="0">A</tspan><tspan class="cls-19" x="107.95" y="0">TIVITY HAS </tspan><tspan class="cls-19"><tspan x="0" y="44.87">NO LIMITS</tspan></tspan></text>
        </g>
        <g class="cls-27">
          <g class="cls-32">
            <g>
              <text class="cls-14" transform="translate(794.35 650.82)"><tspan x="0" y="0">e</tspan></text>
              <text class="cls-2" transform="translate(178.96 596.28)"><tspan x="0" y="0">D</tspan></text>
              <text class="cls-8" transform="translate(343.18 596.28)"><tspan x="0" y="0">e</tspan></text>
              <text class="cls-6" transform="translate(522.47 599.26)"><tspan x="0" y="0">s</tspan></text>
              <text class="cls-15" transform="translate(612.34 599.92)"><tspan x="0" y="0">i</tspan></text>
              <text class="cls-17" transform="translate(782.42 654)"><tspan x="0" y="0">n</tspan></text>
              <text class="cls-3" transform="translate(611.59 685.33)"><tspan x="0" y="0">g</tspan></text>
              <text class="cls-3" transform="translate(987.35 685.33)"><tspan x="0" y="0">r</tspan></text>
              <g>
                <g>
                  <path class="cls-20" d="M895.7,702.2c2.6,8.01-1.78,16.61-9.79,19.22-8.01,2.6-31.3,2.99-33.9-5.02-2.6-8.01,16.47-21.39,24.48-23.99,8.01-2.6,16.61,1.78,19.22,9.79Z"/>
                  <path class="cls-21" d="M895.7,702.2c2.6,8.01-1.78,16.61-9.79,19.22-8.01,2.6-31.3,2.99-33.9-5.02-2.6-8.01,16.47-21.39,24.48-23.99,8.01-2.6,16.61,1.78,19.22,9.79Z"/>
                </g>
                <g>
                  <path class="cls-20" d="M811.17,809.97c-8.42-.16-15.12-7.11-14.96-15.53.16-8.42,7.4-30.56,15.83-30.4,8.42.16,14.83,22.55,14.67,30.97-.16,8.42-7.11,15.12-15.53,14.96Z"/>
                  <path class="cls-21" d="M811.17,809.97c-8.42-.16-15.12-7.11-14.96-15.53.16-8.42,7.4-30.56,15.83-30.4,8.42.16,14.83,22.55,14.67,30.97-.16,8.42-7.11,15.12-15.53,14.96Z"/>
                </g>
                <g>
                  <path class="cls-20" d="M863.43,794.53c-6.74,5.05-16.3,3.67-21.35-3.07-5.05-6.74-12.92-28.66-6.18-33.71,6.74-5.05,25.55,8.69,30.6,15.43,5.05,6.74,3.67,16.3-3.07,21.35Z"/>
                  <path class="cls-21" d="M863.43,794.53c-6.74,5.05-16.3,3.67-21.35-3.07-5.05-6.74-12.92-28.66-6.18-33.71,6.74-5.05,25.55,8.69,30.6,15.43,5.05,6.74,3.67,16.3-3.07,21.35Z"/>
                </g>
                <g>
                  <path class="cls-20" d="M893.96,754.73c-2.67,7.99-11.3,12.3-19.29,9.64-7.99-2.67-26.95-16.19-24.29-24.18,2.67-7.99,25.95-7.42,33.94-4.75,7.99,2.67,12.3,11.3,9.64,19.29Z"/>
                  <path class="cls-21" d="M893.96,754.73c-2.67,7.99-11.3,12.3-19.29,9.64-7.99-2.67-26.95-16.19-24.29-24.18,2.67-7.99,25.95-7.42,33.94-4.75,7.99,2.67,12.3,11.3,9.64,19.29Z"/>
                </g>
              </g>
            </g>
          </g>
        </g>
        <g>
          <text class="cls-4" transform="translate(807.35 631.32)"><tspan x="0" y="0">e</tspan></text>
          <text class="cls-11" transform="translate(191.96 576.78)"><tspan x="0" y="0">D</tspan></text>
          <text class="cls-7" transform="translate(356.18 576.78)"><tspan x="0" y="0">e</tspan></text>
          <text class="cls-10" transform="translate(535.47 579.75)"><tspan x="0" y="0">s</tspan></text>
          <text class="cls-9" transform="translate(625.34 580.41)"><tspan x="0" y="0">i</tspan></text>
          <text class="cls-1" transform="translate(795.42 634.5)"><tspan x="0" y="0">n</tspan></text>
          <text class="cls-13" transform="translate(624.59 665.82)"><tspan x="0" y="0">g</tspan></text>
          <text class="cls-16" transform="translate(1000.35 665.82)"><tspan x="0" y="0">r</tspan></text>
          <g>
            <path class="cls-23" d="M908.7,682.7c2.6,8.01-1.78,16.61-9.79,19.22-8.01,2.6-31.3,2.99-33.9-5.02-2.6-8.01,16.47-21.39,24.48-23.99,8.01-2.6,16.61,1.78,19.22,9.79Z"/>
            <path class="cls-26" d="M824.18,790.47c-8.42-.16-15.12-7.11-14.96-15.53.16-8.42,7.4-30.56,15.83-30.4,8.42.16,14.83,22.55,14.67,30.97-.16,8.42-7.11,15.12-15.53,14.96Z"/>
            <path class="cls-24" d="M876.43,775.03c-6.74,5.05-16.3,3.67-21.35-3.07-5.05-6.74-12.92-28.66-6.18-33.71,6.74-5.05,25.55,8.69,30.6,15.43,5.05,6.74,3.67,16.3-3.07,21.35Z"/>
            <path class="cls-25" d="M906.96,735.23c-2.67,7.99-11.3,12.3-19.29,9.64-7.99-2.67-26.95-16.19-24.29-24.18,2.67-7.99,25.95-7.42,33.94-4.75,7.99,2.67,12.3,11.3,9.64,19.29Z"/>
          </g>
        </g>
      </g>
    </g>
  </g>
</svg>