<?xml version="1.0" encoding="UTF-8"?><svg xmlns="http://www.w3.org/2000/svg" viewBox="0 0 3878.81 3333.63"><defs><style>.cls-1,.cls-2,.cls-3,.cls-4,.cls-5,.cls-6,.cls-7,.cls-8,.cls-9,.cls-10,.cls-11,.cls-12,.cls-13,.cls-14,.cls-15,.cls-16{font-family:ArchivoBlack-Regular, 'Archivo Black';}.cls-1,.cls-3,.cls-4,.cls-5,.cls-17,.cls-13,.cls-15{fill:#2b2e37;}.cls-1,.cls-3,.cls-4,.cls-5,.cls-10,.cls-13,.cls-15,.cls-18{stroke-miterlimit:10;}.cls-1,.cls-3,.cls-4,.cls-5,.cls-13,.cls-15,.cls-18{stroke:#2b2e37;}.cls-1,.cls-8{font-size:384.32px;letter-spacing:-.03em;}.cls-2,.cls-5,.cls-12{font-size:1095.57px;letter-spacing:-.03em;}.cls-2,.cls-19{fill:#ec6525;}.cls-3,.cls-6,.cls-7{font-size:542.75px;letter-spacing:-.02em;}.cls-20{isolation:isolate;}.cls-4,.cls-14{font-size:1145.66px;letter-spacing:-.03em;}.cls-6{fill:#d12d3a;}.cls-21{letter-spacing:-.03em;}.cls-17,.cls-22,.cls-23,.cls-24,.cls-19{stroke-width:0px;}.cls-25{letter-spacing:-.09em;}.cls-22,.cls-8{fill:#f8d40a;}.cls-7{fill:#a5c239;}.cls-26{opacity:.75;}.cls-23,.cls-16{fill:#56b4bb;}.cls-9{font-size:116.76px;}.cls-9,.cls-10{fill:#fff;}.cls-10{font-size:1219.49px;stroke:#fff;}.cls-24,.cls-14{fill:#6b9b40;}.cls-27{opacity:.1;}.cls-28{letter-spacing:-.05em;}.cls-29{letter-spacing:-.02em;}.cls-11{fill:#4eaeb2;}.cls-11,.cls-13{font-size:1063.85px;letter-spacing:-.03em;}.cls-12{fill:#71a141;}.cls-30{letter-spacing:-.02em;}.cls-31{letter-spacing:0em;}.cls-32{mix-blend-mode:multiply;}.cls-15,.cls-16{font-size:1220.3px;letter-spacing:-.03em;}.cls-18{fill:none;}</style></defs><g class="cls-20"><g id="Layer_1"><g class="cls-27"><text class="cls-10" transform="translate(429.58 1492.43)"><tspan class="cls-21" x="0" y="0">C</tspan><tspan class="cls-31" x="918.07" y="0">r</tspan><tspan class="cls-30" x="1448.51" y="0">ea</tspan><tspan class="cls-30" x="0" y="1071.22">ti</tspan><tspan class="cls-28" x="886.4" y="1071.22">v</tspan><tspan class="cls-21" x="1569.26" y="1071.22">e</tspan></text></g><text class="cls-9" transform="translate(512.57 1912.26)"><tspan class="cls-29" x="0" y="0">CRE</tspan><tspan class="cls-25" x="257.21" y="0">A</tspan><tspan class="cls-29" x="337.08" y="0">TIVITY HAS </tspan><tspan class="cls-29"><tspan x="0" y="140.12">NO LIMITS</tspan></tspan></text><g class="cls-26"><g class="cls-32"><text class="cls-15" transform="translate(2334.59 1894.71)"><tspan x="0" y="0">e</tspan></text><text class="cls-13" transform="translate(413.05 1724.41)"><tspan x="0" y="0">D</tspan></text><text class="cls-4" transform="translate(925.85 1724.41)"><tspan x="0" y="0">e</tspan></text><text class="cls-3" transform="translate(1485.67 1733.7)"><tspan x="0" y="0">s</tspan></text><text class="cls-1" transform="translate(1766.28 1735.77)"><tspan x="0" y="0">i</tspan></text><text class="cls-3" transform="translate(2297.37 1904.64)"><tspan x="0" y="0">n</tspan></text><text class="cls-5" transform="translate(1763.95 2002.46)"><tspan x="0" y="0">g</tspan></text><text class="cls-5" transform="translate(2937.24 2002.46)"><tspan x="0" y="0">r</tspan></text><path class="cls-17" d="M2651.06,2055.14c8.13,25.01-5.56,51.87-30.57,60-25.01,8.13-97.73,9.35-105.86-15.66-8.13-25.01,51.42-66.78,76.43-74.9,25.01-8.13,51.87,5.56,60,30.57Z"/><path class="cls-18" d="M2651.06,2055.14c8.13,25.01-5.56,51.87-30.57,60-25.01,8.13-97.73,9.35-105.86-15.66-8.13-25.01,51.42-66.78,76.43-74.9,25.01-8.13,51.87,5.56,60,30.57Z"/><path class="cls-17" d="M2387.14,2391.65c-26.29-.5-47.21-22.21-46.71-48.5.5-26.29,23.12-95.41,49.41-94.92,26.29.5,46.29,70.42,45.8,96.71-.5,26.29-22.21,47.2-48.5,46.71Z"/><path class="cls-18" d="M2387.14,2391.65c-26.29-.5-47.21-22.21-46.71-48.5.5-26.29,23.12-95.41,49.41-94.92,26.29.5,46.29,70.42,45.8,96.71-.5,26.29-22.21,47.2-48.5,46.71Z"/><path class="cls-17" d="M2550.32,2343.43c-21.05,15.76-50.89,11.46-66.65-9.59-15.76-21.05-40.36-89.5-19.31-105.25,21.05-15.76,79.79,27.14,95.55,48.19,15.76,21.05,11.46,50.89-9.59,66.65Z"/><path class="cls-18" d="M2550.32,2343.43c-21.05,15.76-50.89,11.46-66.65-9.59-15.76-21.05-40.36-89.5-19.31-105.25,21.05-15.76,79.79,27.14,95.55,48.19,15.76,21.05,11.46,50.89-9.59,66.65Z"/><path class="cls-17" d="M2645.64,2219.16c-8.32,24.95-35.29,38.42-60.24,30.1-24.94-8.32-84.16-50.55-75.83-75.5,8.32-24.94,81.03-23.16,105.98-14.83,24.94,8.32,38.42,35.29,30.09,60.24Z"/><path class="cls-18" d="M2645.64,2219.16c-8.32,24.95-35.29,38.42-60.24,30.1-24.94-8.32-84.16-50.55-75.83-75.5,8.32-24.94,81.03-23.16,105.98-14.83,24.94,8.32,38.42,35.29,30.09,60.24Z"/></g></g><text class="cls-16" transform="translate(2375.19 1833.81)"><tspan x="0" y="0">e</tspan></text><text class="cls-11" transform="translate(453.64 1663.51)"><tspan x="0" y="0">D</tspan></text><text class="cls-14" transform="translate(966.44 1663.51)"><tspan x="0" y="0">e</tspan></text><text class="cls-7" transform="translate(1526.26 1672.8)"><tspan x="0" y="0">s</tspan></text><text class="cls-8" transform="translate(1806.87 1674.87)"><tspan x="0" y="0">i</tspan></text><text class="cls-6" transform="translate(2337.96 1843.74)"><tspan x="0" y="0">n</tspan></text><text class="cls-2" transform="translate(1804.54 1941.56)"><tspan x="0" y="0">g</tspan></text><text class="cls-12" transform="translate(2977.84 1941.56)"><tspan x="0" y="0">r</tspan></text><path class="cls-23" d="M2691.65,1994.24c8.13,25.01-5.56,51.87-30.57,60-25.01,8.13-97.73,9.35-105.86-15.66-8.13-25.01,51.42-66.78,76.43-74.9,25.01-8.13,51.87,5.56,60,30.57Z"/><path class="cls-19" d="M2427.74,2330.75c-26.29-.5-47.21-22.21-46.71-48.5.5-26.29,23.12-95.41,49.41-94.92,26.29.5,46.29,70.42,45.8,96.71-.5,26.29-22.21,47.2-48.5,46.71Z"/><path class="cls-22" d="M2590.91,2282.54c-21.05,15.76-50.89,11.46-66.65-9.59-15.76-21.05-40.36-89.5-19.31-105.25,21.05-15.76,79.79,27.14,95.55,48.19,15.76,21.05,11.46,50.89-9.59,66.65Z"/><path class="cls-24" d="M2686.23,2158.27c-8.32,24.95-35.29,38.42-60.24,30.1-24.94-8.32-84.16-50.55-75.83-75.5,8.32-24.94,81.03-23.16,105.98-14.83,24.94,8.32,38.42,35.29,30.09,60.24Z"/></g></g></svg>